<svg width="164" height="27" viewBox="0 0 164 27" fill="none" xmlns="http://www.w3.org/2000/svg">
<g clip-path="url(#clip0_1290_9051)">
<path d="M36.0381 10.9647C36.5555 10.0592 37.3132 9.32 38.3111 8.74714C39.309 8.17427 40.4455 7.88784 41.7206 7.88784C43.0881 7.88784 44.317 8.21123 45.4073 8.85801C46.4976 9.5048 47.3569 10.4195 47.9852 11.6022C48.6135 12.7664 48.9277 14.1247 48.9277 15.677C48.9277 17.2108 48.6135 18.5783 47.9852 19.7795C47.3569 20.9806 46.4883 21.9139 45.3796 22.5791C44.2893 23.2444 43.0696 23.577 41.7206 23.577C40.4085 23.577 39.2536 23.2906 38.2557 22.7177C37.2762 22.1448 36.537 21.4149 36.0381 20.5279V23.3275H33.5156V2.81519H36.0381V10.9647ZM46.3497 15.677C46.3497 14.5312 46.1187 13.5334 45.6568 12.6833C45.1948 11.8332 44.5665 11.1864 43.7718 10.7429C42.9957 10.2994 42.1364 10.0777 41.1939 10.0777C40.2699 10.0777 39.4106 10.3087 38.616 10.7707C37.8399 11.2142 37.2116 11.8702 36.7311 12.7387C36.2691 13.5888 36.0381 14.5774 36.0381 15.7047C36.0381 16.8504 36.2691 17.8576 36.7311 18.7261C37.2116 19.5762 37.8399 20.2322 38.616 20.6942C39.4106 21.1377 40.2699 21.3595 41.1939 21.3595C42.1364 21.3595 42.9957 21.1377 43.7718 20.6942C44.5665 20.2322 45.1948 19.5762 45.6568 18.7261C46.1187 17.8576 46.3497 16.8412 46.3497 15.677ZM53.3844 2.81519V23.3275H50.8619V2.81519H53.3844ZM69.7692 8.13731V23.3275H67.2467V21.0823C66.7663 21.8584 66.0918 22.4682 65.2232 22.9117C64.3732 23.3368 63.4307 23.5493 62.3958 23.5493C61.2131 23.5493 60.1506 23.3091 59.2081 22.8286C58.2656 22.3296 57.5172 21.5905 56.9628 20.611C56.4269 19.6316 56.159 18.4397 56.159 17.0352V8.13731H58.6537V16.7026C58.6537 18.1995 59.0325 19.3544 59.7902 20.1675C60.5479 20.9622 61.5827 21.3595 62.8948 21.3595C64.2438 21.3595 65.3064 20.9437 66.0825 20.1121C66.8587 19.2805 67.2467 18.0701 67.2467 16.4808V8.13731H69.7692ZM86.502 15.1503C86.502 15.6308 86.4743 16.139 86.4189 16.6749H74.2778C74.3702 18.1717 74.8783 19.3452 75.8023 20.1952C76.7448 21.0268 77.8813 21.4426 79.2118 21.4426C80.3021 21.4426 81.2076 21.1931 81.9283 20.6942C82.6675 20.1768 83.1849 19.493 83.4806 18.643H86.1971C85.7906 20.1028 84.9775 21.2948 83.7578 22.2188C82.5382 23.1243 81.0228 23.577 79.2118 23.577C77.7704 23.577 76.4768 23.2536 75.3311 22.6068C74.2038 21.9601 73.3168 21.0453 72.67 19.8626C72.0232 18.6614 71.6998 17.2755 71.6998 15.7047C71.6998 14.1339 72.014 12.7572 72.6423 11.5745C73.2706 10.3918 74.1484 9.48632 75.2757 8.85801C76.4214 8.21123 77.7335 7.88784 79.2118 7.88784C80.6532 7.88784 81.9283 8.20199 83.0371 8.83029C84.1459 9.4586 84.9959 10.3271 85.5873 11.4359C86.1971 12.5262 86.502 13.7643 86.502 15.1503ZM83.8964 14.6236C83.8964 13.6627 83.6839 12.8404 83.2589 12.1566C82.8338 11.4544 82.2517 10.9277 81.5125 10.5766C80.7918 10.207 79.988 10.0222 79.1009 10.0222C77.8258 10.0222 76.7355 10.4288 75.83 11.2419C74.943 12.055 74.4348 13.1822 74.3055 14.6236H83.8964ZM107.766 7.6938C109.688 7.6938 111.213 8.27591 112.34 9.44012C113.486 10.6043 114.059 12.2213 114.059 14.291V23.3275H109.346V14.9286C109.346 13.9307 109.078 13.1638 108.542 12.6279C108.025 12.0735 107.304 11.7963 106.38 11.7963C105.456 11.7963 104.726 12.0735 104.19 12.6279C103.673 13.1638 103.414 13.9307 103.414 14.9286V23.3275H98.702V14.9286C98.702 13.9307 98.4341 13.1638 97.8982 12.6279C97.3807 12.0735 96.66 11.7963 95.736 11.7963C94.8121 11.7963 94.0821 12.0735 93.5462 12.6279C93.0288 13.1638 92.7701 13.9307 92.7701 14.9286V23.3275H88.03V7.86012H92.7701V9.80047C93.2505 9.15369 93.8788 8.6455 94.655 8.27591C95.4311 7.88784 96.3089 7.6938 97.2883 7.6938C98.4526 7.6938 99.4874 7.94327 100.393 8.44222C101.317 8.94117 102.038 9.65264 102.555 10.5766C103.091 9.72655 103.821 9.03357 104.745 8.49766C105.669 7.96175 106.676 7.6938 107.766 7.6938ZM123.028 23.5493C121.513 23.5493 120.145 23.2259 118.926 22.5791C117.725 21.9323 116.773 21.0084 116.071 19.8072C115.387 18.606 115.045 17.2016 115.045 15.5938C115.045 14.0046 115.396 12.6094 116.098 11.4082C116.801 10.1885 117.762 9.25533 118.981 8.60854C120.201 7.96175 121.568 7.63836 123.084 7.63836C124.599 7.63836 125.967 7.96175 127.186 8.60854C128.406 9.25533 129.367 10.1885 130.069 11.4082C130.771 12.6094 131.122 14.0046 131.122 15.5938C131.122 17.1831 130.762 18.5875 130.041 19.8072C129.339 21.0084 128.369 21.9323 127.131 22.5791C125.911 23.2259 124.544 23.5493 123.028 23.5493ZM123.028 19.4468C123.934 19.4468 124.701 19.1142 125.329 18.4489C125.976 17.7837 126.299 16.832 126.299 15.5938C126.299 14.3557 125.985 13.404 125.357 12.7387C124.747 12.0735 123.989 11.7408 123.084 11.7408C122.16 11.7408 121.393 12.0735 120.783 12.7387C120.173 13.3855 119.868 14.3372 119.868 15.5938C119.868 16.832 120.164 17.7837 120.755 18.4489C121.365 19.1142 122.123 19.4468 123.028 19.4468ZM139.292 23.5493C137.777 23.5493 136.409 23.2259 135.19 22.5791C133.988 21.9323 133.037 21.0084 132.334 19.8072C131.651 18.606 131.309 17.2016 131.309 15.5938C131.309 14.0046 131.66 12.6094 132.362 11.4082C133.064 10.1885 134.025 9.25533 135.245 8.60854C136.465 7.96175 137.832 7.63836 139.347 7.63836C140.863 7.63836 142.23 7.96175 143.45 8.60854C144.67 9.25533 145.631 10.1885 146.333 11.4082C147.035 12.6094 147.386 14.0046 147.386 15.5938C147.386 17.1831 147.026 18.5875 146.305 19.8072C145.603 21.0084 144.633 21.9323 143.395 22.5791C142.175 23.2259 140.807 23.5493 139.292 23.5493ZM139.292 19.4468C140.198 19.4468 140.964 19.1142 141.593 18.4489C142.24 17.7837 142.563 16.832 142.563 15.5938C142.563 14.3557 142.249 13.404 141.62 12.7387C141.011 12.0735 140.253 11.7408 139.347 11.7408C138.423 11.7408 137.657 12.0735 137.047 12.7387C136.437 13.3855 136.132 14.3372 136.132 15.5938C136.132 16.832 136.428 17.7837 137.019 18.4489C137.629 19.1142 138.387 19.4468 139.292 19.4468ZM157.939 7.6938C159.75 7.6938 161.191 8.28515 162.263 9.46784C163.354 10.6321 163.899 12.2398 163.899 14.291V23.3275H159.186V14.9286C159.186 13.8937 158.919 13.0898 158.383 12.517C157.847 11.9441 157.126 11.6577 156.22 11.6577C155.315 11.6577 154.594 11.9441 154.058 12.517C153.522 13.0898 153.254 13.8937 153.254 14.9286V23.3275H148.514V7.86012H153.254V9.91135C153.735 9.22761 154.382 8.6917 155.195 8.30363C156.008 7.89707 156.923 7.6938 157.939 7.6938Z" fill="black"/>
</g>
<path d="M26.418 0.975094L21.7321 3.51977L18.6212 5.21189L16.441 6.40288C15.5103 6.00588 14.482 5.78461 13.4017 5.78461C9.13236 5.78461 5.67654 9.24043 5.67654 13.5098C5.67654 15.5403 6.46402 17.3886 7.74612 18.7683L6.2883 20.2457C4.62222 18.4885 3.60044 16.1195 3.60044 13.5033C3.60044 8.08849 7.98693 3.702 13.4017 3.702C14.3324 3.702 15.2305 3.83217 16.083 4.07297L19.7992 2.1791C17.9118 1.11176 15.7251 0.5 13.4017 0.5C6.21671 0.5 0.398438 6.32478 0.398438 13.5033C0.398438 17.0046 1.78467 20.1871 4.03649 22.5235L1.23148 25.3676L4.81096 23.259L7.76565 21.5148L9.78968 20.3238C10.87 20.8965 12.1001 21.2219 13.4082 21.2219C17.6775 21.2219 21.1334 17.7661 21.1334 13.4967C21.1334 11.3881 20.2873 9.47472 18.9141 8.07547L20.424 6.65019C22.1486 8.41389 23.216 10.8349 23.216 13.4967C23.216 18.9115 18.8295 23.298 13.4147 23.298C12.2302 23.298 11.0913 23.0897 10.037 22.6992L6.62022 24.5866C8.59869 25.7971 10.9221 26.5 13.4147 26.5C20.5997 26.5 26.418 20.6752 26.418 13.4967C26.418 9.97585 25.0187 6.78686 22.7539 4.44393L26.418 0.975094Z" fill="url(#paint0_linear_1290_9051)"/>
<defs>
<linearGradient id="paint0_linear_1290_9051" x1="26.281" y1="1.11625" x2="2.04178" y2="24.6708" gradientUnits="userSpaceOnUse">
<stop stop-color="#1ED6FF"/>
<stop offset="1" stop-color="#0F80FE"/>
</linearGradient>
<clipPath id="clip0_1290_9051">
<rect width="130.988" height="21.1972" fill="white" transform="translate(33.0078 2.67432)"/>
</clipPath>
</defs>
</svg>
