<svg width="26" height="27" viewBox="0 0 26 27" fill="none" xmlns="http://www.w3.org/2000/svg">
<path d="M16.9976 11.1002L12.7535 16.7621C12.6848 16.8537 12.5971 16.9295 12.4966 16.9842C12.396 17.039 12.2848 17.0716 12.1706 17.0797C12.0564 17.0878 11.9418 17.0712 11.8345 17.0311C11.7272 16.9911 11.6298 16.9284 11.5488 16.8474L9.00193 14.3002M11.6458 2.14878C11.8087 1.94626 12.0149 1.78284 12.2492 1.67056C12.4835 1.55828 12.74 1.5 12.9998 1.5C13.2596 1.5 13.5161 1.55828 13.7504 1.67056C13.9847 1.78284 14.1909 1.94626 14.3537 2.14878L15.9657 4.15518C16.1482 4.3828 16.3851 4.56076 16.6546 4.67261C16.924 4.78446 17.2172 4.82661 17.5072 4.79518L20.0659 4.51678C20.3249 4.48799 20.587 4.51786 20.8329 4.60417C21.0789 4.69048 21.3022 4.83102 21.4865 5.01539C21.6708 5.19976 21.8112 5.42324 21.8975 5.66928C21.9838 5.91532 22.0136 6.17762 21.9848 6.43677L21.7066 8.99676C21.6752 9.28692 21.7173 9.58032 21.8291 9.84988C21.9409 10.1194 22.1187 10.3565 22.3462 10.5392L24.3516 12.152C24.554 12.3149 24.7173 12.5212 24.8295 12.7556C24.9417 12.99 25 13.2467 25 13.5066C25 13.7666 24.9417 14.0232 24.8295 14.2576C24.7173 14.4921 24.554 14.6983 24.3516 14.8613L22.3398 16.4666C22.1124 16.6496 21.9346 16.8868 21.8228 17.1565C21.7111 17.4263 21.6689 17.7198 21.7002 18.0101L21.9784 20.5701C22.0074 20.8292 21.9777 21.0916 21.8915 21.3378C21.8053 21.5839 21.6649 21.8075 21.4805 21.9919C21.2962 22.1763 21.0728 22.3169 20.8268 22.4031C20.5808 22.4893 20.3185 22.519 20.0595 22.4901L17.5008 22.2117C17.2108 22.1801 16.9176 22.2222 16.6481 22.3341C16.3787 22.4459 16.1418 22.624 15.9593 22.8517L14.3537 24.8506C14.191 25.0533 13.9849 25.2169 13.7505 25.3293C13.5162 25.4417 13.2596 25.5 12.9998 25.5C12.7399 25.5 12.4834 25.4417 12.249 25.3293C12.0147 25.2169 11.8086 25.0533 11.6458 24.8506L10.035 22.8453C9.85218 22.6176 9.61507 22.4397 9.34547 22.3278C9.07588 22.216 8.78249 22.1738 8.49234 22.2053L5.93371 22.4837C5.67461 22.5129 5.41227 22.4833 5.16618 22.3971C4.92008 22.3109 4.69654 22.1704 4.51218 21.9859C4.32781 21.8015 4.18735 21.5778 4.10123 21.3316C4.01512 21.0854 3.98555 20.8229 4.01474 20.5637L4.29299 18.0037C4.3244 17.7134 4.28227 17.4198 4.17048 17.1501C4.05869 16.8803 3.88085 16.6431 3.65333 16.4602L1.64907 14.8485C1.44648 14.6857 1.28299 14.4794 1.17065 14.245C1.05832 14.0105 1 13.7538 1 13.4938C1 13.2338 1.05832 12.9771 1.17065 12.7427C1.28299 12.5082 1.44648 12.302 1.64907 12.1392L3.65333 10.5264C3.88091 10.3438 4.05882 10.1067 4.17063 9.83714C4.28243 9.56756 4.32451 9.27412 4.29299 8.98396L4.01474 6.42397C3.98576 6.16478 4.01547 5.90239 4.10166 5.65626C4.18785 5.41012 4.32831 5.18655 4.51263 5.00214C4.69695 4.81772 4.9204 4.67718 5.1664 4.59094C5.41241 4.50471 5.67466 4.47498 5.93371 4.50398L8.49234 4.78238C8.78248 4.8137 9.07584 4.7715 9.34542 4.65966C9.61499 4.54783 9.85212 4.36994 10.035 4.14238L11.6458 2.14878Z" stroke="#1B76FF" stroke-width="2" stroke-linecap="round" stroke-linejoin="round"/>
</svg>
