<svg width="162" height="37" viewBox="0 0 162 37" fill="none" xmlns="http://www.w3.org/2000/svg">
<path d="M32.4502 5.5C39.6299 5.5 45.4502 11.3203 45.4502 18.5C45.4502 25.6797 39.6299 31.5 32.4502 31.5H13L12.6641 31.4961C5.63961 31.3179 0 25.5674 0 18.5C0 11.3203 5.8203 5.5 13 5.5H32.4502ZM13 10.0479C8.33214 10.0479 4.54785 13.8321 4.54785 18.5C4.54785 23.1679 8.33214 26.9521 13 26.9521H21.8975L22.7119 27.6504L20.4531 30.4736L24.8887 27.6602L24.0625 26.9521H32.4502C37.1181 26.9521 40.9023 23.1679 40.9023 18.5C40.9023 13.8321 37.1181 10.0479 32.4502 10.0479H13ZM11.9268 15.6494C13.4955 15.6494 14.7674 16.9257 14.7676 18.5C14.7676 20.0745 13.4956 21.3516 11.9268 21.3516C10.3581 21.3514 9.08691 20.0744 9.08691 18.5C9.08711 16.9258 10.3582 15.6496 11.9268 15.6494ZM33.5195 15.6494C35.0882 15.6495 36.3602 16.9257 36.3604 18.5C36.3604 20.0744 35.0883 21.3514 33.5195 21.3516C31.9507 21.3516 30.6787 20.0745 30.6787 18.5C30.6789 16.9257 31.9508 15.6494 33.5195 15.6494Z" fill="url(#paint0_linear_1290_9061)"/>
<path d="M59.1217 27.2233C58.0797 27.2233 57.1453 27.0496 56.3183 26.7023C55.4913 26.3384 54.838 25.8422 54.3584 25.2137C53.8787 24.5687 53.6141 23.8327 53.5645 23.0057H55.8965C55.9627 23.6838 56.2769 24.2379 56.8393 24.6679C57.4182 25.098 58.1707 25.313 59.0969 25.313C59.957 25.313 60.6351 25.1228 61.1313 24.7424C61.6274 24.362 61.8755 23.8823 61.8755 23.3034C61.8755 22.708 61.6109 22.2697 61.0816 21.9885C60.5524 21.6908 59.7337 21.4014 58.6255 21.1202C57.6166 20.8556 56.7897 20.591 56.1446 20.3263C55.5161 20.0452 54.9703 19.6399 54.5072 19.1107C54.0607 18.5649 53.8374 17.8537 53.8374 16.9771C53.8374 16.2824 54.0441 15.6457 54.4576 15.0668C54.8711 14.4879 55.4582 14.0331 56.219 13.7023C56.9799 13.355 57.8482 13.1813 58.824 13.1813C60.3291 13.1813 61.5447 13.5617 62.471 14.3225C63.3972 15.0833 63.8933 16.1253 63.9595 17.4485H61.7019C61.6523 16.7373 61.3628 16.1667 60.8336 15.7366C60.3208 15.3066 59.6262 15.0916 58.7496 15.0916C57.9392 15.0916 57.2941 15.2653 56.8145 15.6126C56.3348 15.9599 56.095 16.4148 56.095 16.9771C56.095 17.4237 56.2356 17.7958 56.5168 18.0935C56.8145 18.3747 57.1783 18.6062 57.6084 18.7882C58.0549 18.9536 58.6669 19.1438 59.4442 19.3588C60.4201 19.6234 61.214 19.888 61.8259 20.1527C62.4379 20.4008 62.9589 20.7812 63.3889 21.2939C63.8355 21.8066 64.067 22.4765 64.0836 23.3034C64.0836 24.0477 63.8768 24.7176 63.4633 25.313C63.0498 25.9084 62.4627 26.3798 61.7019 26.7271C60.9576 27.0579 60.0975 27.2233 59.1217 27.2233ZM70.0244 15.2653V23.2786C70.0244 23.9402 70.165 24.4116 70.4461 24.6927C70.7273 24.9574 71.2152 25.0897 71.9099 25.0897H73.5721V27H71.5377C70.2807 27 69.338 26.7106 68.7095 26.1317C68.081 25.5528 67.7667 24.6018 67.7667 23.2786V15.2653H66.0053V13.4046H67.7667V9.98091H70.0244V13.4046H73.5721V15.2653H70.0244ZM78.5651 15.6126C78.9621 14.8352 79.5244 14.2316 80.2521 13.8015C80.9964 13.3715 81.8978 13.1565 82.9563 13.1565V15.4885H82.3609C79.8304 15.4885 78.5651 16.8613 78.5651 19.6069V27H76.3075V13.4046H78.5651V15.6126ZM86.7285 11.1966C86.2985 11.1966 85.9346 11.0477 85.6369 10.75C85.3392 10.4523 85.1903 10.0884 85.1903 9.65839C85.1903 9.22837 85.3392 8.8645 85.6369 8.56679C85.9346 8.26908 86.2985 8.12023 86.7285 8.12023C87.142 8.12023 87.4893 8.26908 87.7705 8.56679C88.0682 8.8645 88.2171 9.22837 88.2171 9.65839C88.2171 10.0884 88.0682 10.4523 87.7705 10.75C87.4893 11.0477 87.142 11.1966 86.7285 11.1966ZM87.8201 13.4046V27H85.5625V13.4046H87.8201ZM99.2595 27L93.9255 20.9962V27H91.6679V8.64122H93.9255V19.4332L99.1602 13.4046H102.311L95.9102 20.1775L102.336 27H99.2595ZM116.84 19.6813C116.84 20.1113 116.816 20.5662 116.766 21.0458H105.9C105.982 22.3855 106.437 23.4358 107.264 24.1966C108.108 24.9408 109.125 25.313 110.316 25.313C111.291 25.313 112.102 25.0897 112.747 24.6431C113.408 24.18 113.872 23.5681 114.136 22.8073H116.568C116.204 24.1139 115.476 25.1807 114.384 26.0076C113.293 26.8181 111.936 27.2233 110.316 27.2233C109.026 27.2233 107.868 26.9338 106.842 26.355C105.833 25.7761 105.04 24.9574 104.461 23.8989C103.882 22.8238 103.592 21.5833 103.592 20.1775C103.592 18.7716 103.874 17.5394 104.436 16.4809C104.998 15.4224 105.784 14.612 106.793 14.0496C107.818 13.4707 108.992 13.1813 110.316 13.1813C111.606 13.1813 112.747 13.4625 113.739 14.0248C114.732 14.5871 115.492 15.3645 116.022 16.3569C116.568 17.3327 116.84 18.4408 116.84 19.6813ZM114.508 19.2099C114.508 18.3499 114.318 17.6139 113.938 17.0019C113.557 16.3734 113.036 15.902 112.375 15.5878C111.73 15.257 111.01 15.0916 110.216 15.0916C109.075 15.0916 108.099 15.4555 107.289 16.1832C106.495 16.9109 106.04 17.9198 105.924 19.2099H114.508ZM123.691 15.1164C124.088 14.4714 124.658 13.9504 125.403 13.5534C126.147 13.1565 126.999 12.958 127.958 12.958C129.099 12.958 130.133 13.2475 131.059 13.8263C131.985 14.4052 132.713 15.2322 133.242 16.3073C133.788 17.3823 134.061 18.631 134.061 20.0534C134.061 21.4758 133.788 22.7328 133.242 23.8244C132.713 24.8995 131.985 25.7347 131.059 26.3302C130.133 26.909 129.099 27.1985 127.958 27.1985C126.982 27.1985 126.13 27.0083 125.403 26.6279C124.675 26.2309 124.104 25.7099 123.691 25.0649V27H119.448V8.64122H123.691V15.1164ZM129.744 20.0534C129.744 18.9949 129.446 18.1679 128.851 17.5725C128.272 16.9606 127.553 16.6546 126.693 16.6546C125.849 16.6546 125.13 16.9606 124.534 17.5725C123.955 18.1845 123.666 19.0197 123.666 20.0782C123.666 21.1368 123.955 21.972 124.534 22.584C125.13 23.1959 125.849 23.5019 126.693 23.5019C127.536 23.5019 128.256 23.1959 128.851 22.584C129.446 21.9555 129.744 21.112 129.744 20.0534ZM142.588 27.1985C141.232 27.1985 140.008 26.909 138.916 26.3302C137.841 25.7513 136.989 24.9243 136.361 23.8492C135.749 22.7742 135.443 21.5172 135.443 20.0782C135.443 18.6559 135.757 17.4071 136.386 16.3321C137.014 15.2405 137.874 14.4052 138.966 13.8263C140.058 13.2475 141.281 12.958 142.638 12.958C143.994 12.958 145.218 13.2475 146.309 13.8263C147.401 14.4052 148.261 15.2405 148.89 16.3321C149.518 17.4071 149.832 18.6559 149.832 20.0782C149.832 21.5006 149.51 22.7576 148.865 23.8492C148.236 24.9243 147.368 25.7513 146.26 26.3302C145.168 26.909 143.944 27.1985 142.588 27.1985ZM142.588 23.5267C143.399 23.5267 144.085 23.229 144.647 22.6336C145.226 22.0382 145.516 21.1864 145.516 20.0782C145.516 18.9701 145.234 18.1183 144.672 17.5229C144.126 16.9275 143.448 16.6298 142.638 16.6298C141.811 16.6298 141.124 16.9275 140.579 17.5229C140.033 18.1018 139.76 18.9536 139.76 20.0782C139.76 21.1864 140.024 22.0382 140.554 22.6336C141.1 23.229 141.778 23.5267 142.588 23.5267ZM159.799 23.4027V27H157.64C156.102 27 154.903 26.6279 154.043 25.8836C153.183 25.1228 152.753 23.8906 152.753 22.187V16.6794H151.066V13.1565H152.753V9.78244H156.995V13.1565H159.774V16.6794H156.995V22.2366C156.995 22.6501 157.094 22.9478 157.293 23.1298C157.491 23.3117 157.822 23.4027 158.285 23.4027H159.799Z" fill="black"/>
<defs>
<linearGradient id="paint0_linear_1290_9061" x1="4.09052" y1="10.6886" x2="42.3879" y2="31.3845" gradientUnits="userSpaceOnUse">
<stop stop-color="#F9420A"/>
<stop offset="1" stop-color="#FFA461"/>
</linearGradient>
</defs>
</svg>
