<svg width="382" height="206" viewBox="0 0 382 206" fill="none" xmlns="http://www.w3.org/2000/svg">
<g clip-path="url(#clip0_1347_8729)">
<rect width="380.817" height="205.551" transform="translate(0.59375)" fill="#1B76FF"/>
<g filter="url(#filter0_d_1347_8729)">
<rect x="83.1406" y="28.7776" width="108.302" height="148.981" rx="12.8872" transform="rotate(-3 83.1406 28.7776)" fill="white"/>
</g>
<g filter="url(#filter1_d_1347_8729)">
<rect x="106.734" y="158.337" width="5.33726" height="8.20714" rx="2.66863" transform="rotate(-3 106.734 158.337)" fill="#1B76FF"/>
</g>
<g filter="url(#filter2_d_1347_8729)">
<rect x="116.305" y="151.544" width="5.33726" height="14.4903" rx="2.66863" transform="rotate(-3 116.305 151.544)" fill="#1B76FF"/>
</g>
<g filter="url(#filter3_d_1347_8729)">
<rect x="125.844" y="144.09" width="5.33726" height="21.4347" rx="2.66863" transform="rotate(-3 125.844 144.09)" fill="#1B76FF"/>
</g>
<g filter="url(#filter4_d_1347_8729)">
<rect x="135.414" y="137.167" width="5.33726" height="27.8477" rx="2.66863" transform="rotate(-3 135.414 137.167)" fill="#1B76FF"/>
</g>
<g filter="url(#filter5_d_1347_8729)">
<rect x="145.031" y="131.248" width="5.33726" height="33.2548" rx="2.66863" transform="rotate(-3 145.031 131.248)" fill="#1B76FF"/>
</g>
<g filter="url(#filter6_d_1347_8729)">
<rect x="154.727" y="126.841" width="5.33726" height="37.148" rx="2.66863" transform="rotate(-3 154.727 126.841)" fill="#1B76FF"/>
</g>
<g filter="url(#filter7_d_1347_8729)">
<rect x="164.484" y="123.618" width="5.33726" height="39.8558" rx="2.66863" transform="rotate(-3 164.484 123.618)" fill="#1B76FF"/>
</g>
<g filter="url(#filter8_d_1347_8729)">
<rect x="174.195" y="119.284" width="5.33726" height="43.6761" rx="2.66863" transform="rotate(-3.00001 174.195 119.284)" fill="#782CE4"/>
</g>
<rect x="103.312" y="83.5911" width="73.7502" height="5.36948" rx="2.68474" transform="rotate(-3 103.312 83.5911)" fill="#BEBFCC"/>
<rect x="103.805" y="92.9746" width="49.4839" height="5.36948" rx="2.68474" transform="rotate(-3 103.805 92.9746)" fill="#E7E8F1"/>
<rect x="104.297" y="102.358" width="73.7502" height="5.36948" rx="2.68474" transform="rotate(-3 104.297 102.358)" fill="#E7E8F1"/>
<rect x="104.883" y="113.458" width="65.4957" height="5.36948" rx="2.68474" transform="rotate(-3 104.883 113.458)" fill="#E7E8F1"/>
<rect x="137.18" y="42.4575" width="38.6763" height="5.36948" rx="2.68474" transform="rotate(-3 137.18 42.4575)" fill="#BEBFCC"/>
<rect x="137.68" y="51.8411" width="28.7154" height="5.36948" rx="2.68474" transform="rotate(-3 137.68 51.8411)" fill="#E7E8F1"/>
<rect x="138.164" y="61.2251" width="35.8517" height="5.36948" rx="2.68474" transform="rotate(-3 138.164 61.2251)" fill="#E7E8F1"/>
<g filter="url(#filter9_d_1347_8729)">
<path d="M110.585 42.1187C113.53 41.0802 116.733 41.0271 119.71 41.9675C122.688 42.9079 125.279 44.7908 127.094 47.3324C128.908 49.8739 129.847 52.9364 129.769 56.0581C129.691 59.1798 128.6 62.1915 126.661 64.6393" stroke="#782CE4" stroke-width="5.49042" stroke-linecap="round"/>
</g>
<g filter="url(#filter10_d_1347_8729)">
<path d="M126.667 64.6319C125.394 66.2409 123.792 67.5594 121.969 68.499C120.145 69.4385 118.141 69.9776 116.092 70.08" stroke="#FFCD1D" stroke-width="5.49042" stroke-linecap="round"/>
</g>
<g filter="url(#filter11_d_1347_8729)">
<path d="M116.128 70.0782C112.67 70.2594 109.262 69.1884 106.53 67.0616C103.797 64.9347 101.922 61.8944 101.249 58.4977C100.576 55.1011 101.149 51.5756 102.864 48.5674C104.579 45.5591 107.321 43.2695 110.586 42.1182" stroke="#1B76FF" stroke-width="5.49042" stroke-linecap="round"/>
</g>
<g filter="url(#filter12_d_1347_8729)">
<rect x="191.883" y="17.915" width="108.302" height="148.981" rx="12.8872" transform="rotate(13 191.883 17.915)" fill="white"/>
</g>
<path opacity="0.3" d="M261.904 126.717C257.115 147.461 236.416 160.396 215.671 155.606C194.926 150.817 181.992 130.118 186.781 109.373C191.571 88.6284 212.27 75.694 233.015 80.4833C253.759 85.2726 266.694 105.972 261.904 126.717ZM196.72 111.668C193.198 126.923 202.71 142.146 217.966 145.668C233.221 149.19 248.444 139.678 251.966 124.422C255.488 109.166 245.976 93.944 230.72 90.4219C215.464 86.8999 200.242 96.4118 196.72 111.668Z" fill="#E7E8F1"/>
<g filter="url(#filter13_d_1347_8729)">
<path d="M211.287 148.803C210.179 151.413 207.141 152.66 204.701 151.215C200.292 148.604 196.433 145.132 193.364 140.987C189.272 135.462 186.732 128.943 186.008 122.105C185.284 115.268 186.401 108.361 189.245 102.101C192.089 95.8413 196.555 90.4557 202.18 86.5028C207.806 82.55 214.387 80.1737 221.24 79.6203C228.094 79.0669 234.97 80.3566 241.157 83.3556C247.344 86.3546 252.617 90.9539 256.428 96.6766C259.287 100.969 261.246 105.777 262.207 110.809C262.74 113.595 260.537 116.03 257.706 116.188C254.874 116.345 252.497 114.156 251.83 111.4C251.055 108.194 249.723 105.136 247.88 102.369C245.084 98.1714 241.216 94.7975 236.678 92.5974C232.139 90.3974 227.094 89.4513 222.067 89.8573C217.039 90.2632 212.212 92.0064 208.085 94.9062C203.958 97.8059 200.682 101.757 198.596 106.349C196.51 110.941 195.69 116.008 196.221 121.024C196.752 126.039 198.615 130.822 201.617 134.875C203.596 137.546 206.021 139.837 208.774 141.652C211.141 143.214 212.395 146.192 211.287 148.803Z" fill="#1B76FF"/>
</g>
<g filter="url(#filter14_d_1347_8729)">
<rect x="203.398" y="35.6838" width="76.512" height="5.36948" rx="2.68474" transform="rotate(13 203.398 35.6838)" fill="#1B76FF"/>
</g>
<rect x="201.156" y="45.3767" width="56.8067" height="5.36948" rx="2.68474" transform="rotate(13 201.156 45.3767)" fill="#E7E8F1"/>
<rect x="198.922" y="55.0698" width="70.9241" height="5.36948" rx="2.68474" transform="rotate(13 198.922 55.0698)" fill="#E7E8F1"/>
</g>
<defs>
<filter id="filter0_d_1347_8729" x="59.8523" y="1.22976" width="162.53" height="201.022" filterUnits="userSpaceOnUse" color-interpolation-filters="sRGB">
<feFlood flood-opacity="0" result="BackgroundImageFix"/>
<feColorMatrix in="SourceAlpha" type="matrix" values="0 0 0 0 0 0 0 0 0 0 0 0 0 0 0 0 0 0 127 0" result="hardAlpha"/>
<feOffset dy="1.40851"/>
<feGaussianBlur stdDeviation="11.9723"/>
<feColorMatrix type="matrix" values="0 0 0 0 0.121042 0 0 0 0 0.143938 0 0 0 0 0.35 0 0 0 0.27 0"/>
<feBlend mode="normal" in2="BackgroundImageFix" result="effect1_dropShadow_1347_8729"/>
<feBlend mode="normal" in="SourceGraphic" in2="effect1_dropShadow_1347_8729" result="shape"/>
</filter>
<filter id="filter1_d_1347_8729" x="104.122" y="156.821" width="10.9826" height="13.6938" filterUnits="userSpaceOnUse" color-interpolation-filters="sRGB">
<feFlood flood-opacity="0" result="BackgroundImageFix"/>
<feColorMatrix in="SourceAlpha" type="matrix" values="0 0 0 0 0 0 0 0 0 0 0 0 0 0 0 0 0 0 127 0" result="hardAlpha"/>
<feOffset dy="1.3726"/>
<feGaussianBlur stdDeviation="1.3726"/>
<feColorMatrix type="matrix" values="0 0 0 0 0.104167 0 0 0 0 0.4625 0 0 0 0 1 0 0 0 0.15 0"/>
<feBlend mode="normal" in2="BackgroundImageFix" result="effect1_dropShadow_1347_8729"/>
<feBlend mode="normal" in="SourceGraphic" in2="effect1_dropShadow_1347_8729" result="shape"/>
</filter>
<filter id="filter2_d_1347_8729" x="113.692" y="150.028" width="11.3107" height="19.9682" filterUnits="userSpaceOnUse" color-interpolation-filters="sRGB">
<feFlood flood-opacity="0" result="BackgroundImageFix"/>
<feColorMatrix in="SourceAlpha" type="matrix" values="0 0 0 0 0 0 0 0 0 0 0 0 0 0 0 0 0 0 127 0" result="hardAlpha"/>
<feOffset dy="1.3726"/>
<feGaussianBlur stdDeviation="1.3726"/>
<feColorMatrix type="matrix" values="0 0 0 0 0.104167 0 0 0 0 0.4625 0 0 0 0 1 0 0 0 0.15 0"/>
<feBlend mode="normal" in2="BackgroundImageFix" result="effect1_dropShadow_1347_8729"/>
<feBlend mode="normal" in="SourceGraphic" in2="effect1_dropShadow_1347_8729" result="shape"/>
</filter>
<filter id="filter3_d_1347_8729" x="123.231" y="142.574" width="11.6701" height="26.9033" filterUnits="userSpaceOnUse" color-interpolation-filters="sRGB">
<feFlood flood-opacity="0" result="BackgroundImageFix"/>
<feColorMatrix in="SourceAlpha" type="matrix" values="0 0 0 0 0 0 0 0 0 0 0 0 0 0 0 0 0 0 127 0" result="hardAlpha"/>
<feOffset dy="1.3726"/>
<feGaussianBlur stdDeviation="1.3726"/>
<feColorMatrix type="matrix" values="0 0 0 0 0.104167 0 0 0 0 0.4625 0 0 0 0 1 0 0 0 0.15 0"/>
<feBlend mode="normal" in2="BackgroundImageFix" result="effect1_dropShadow_1347_8729"/>
<feBlend mode="normal" in="SourceGraphic" in2="effect1_dropShadow_1347_8729" result="shape"/>
</filter>
<filter id="filter4_d_1347_8729" x="132.802" y="135.651" width="12.006" height="33.3073" filterUnits="userSpaceOnUse" color-interpolation-filters="sRGB">
<feFlood flood-opacity="0" result="BackgroundImageFix"/>
<feColorMatrix in="SourceAlpha" type="matrix" values="0 0 0 0 0 0 0 0 0 0 0 0 0 0 0 0 0 0 127 0" result="hardAlpha"/>
<feOffset dy="1.3726"/>
<feGaussianBlur stdDeviation="1.3726"/>
<feColorMatrix type="matrix" values="0 0 0 0 0.104167 0 0 0 0 0.4625 0 0 0 0 1 0 0 0 0.15 0"/>
<feBlend mode="normal" in2="BackgroundImageFix" result="effect1_dropShadow_1347_8729"/>
<feBlend mode="normal" in="SourceGraphic" in2="effect1_dropShadow_1347_8729" result="shape"/>
</filter>
<filter id="filter5_d_1347_8729" x="142.419" y="129.732" width="12.2951" height="38.707" filterUnits="userSpaceOnUse" color-interpolation-filters="sRGB">
<feFlood flood-opacity="0" result="BackgroundImageFix"/>
<feColorMatrix in="SourceAlpha" type="matrix" values="0 0 0 0 0 0 0 0 0 0 0 0 0 0 0 0 0 0 127 0" result="hardAlpha"/>
<feOffset dy="1.3726"/>
<feGaussianBlur stdDeviation="1.3726"/>
<feColorMatrix type="matrix" values="0 0 0 0 0.104167 0 0 0 0 0.4625 0 0 0 0 1 0 0 0 0.15 0"/>
<feBlend mode="normal" in2="BackgroundImageFix" result="effect1_dropShadow_1347_8729"/>
<feBlend mode="normal" in="SourceGraphic" in2="effect1_dropShadow_1347_8729" result="shape"/>
</filter>
<filter id="filter6_d_1347_8729" x="152.114" y="125.325" width="12.4982" height="42.5949" filterUnits="userSpaceOnUse" color-interpolation-filters="sRGB">
<feFlood flood-opacity="0" result="BackgroundImageFix"/>
<feColorMatrix in="SourceAlpha" type="matrix" values="0 0 0 0 0 0 0 0 0 0 0 0 0 0 0 0 0 0 127 0" result="hardAlpha"/>
<feOffset dy="1.3726"/>
<feGaussianBlur stdDeviation="1.3726"/>
<feColorMatrix type="matrix" values="0 0 0 0 0.104167 0 0 0 0 0.4625 0 0 0 0 1 0 0 0 0.15 0"/>
<feBlend mode="normal" in2="BackgroundImageFix" result="effect1_dropShadow_1347_8729"/>
<feBlend mode="normal" in="SourceGraphic" in2="effect1_dropShadow_1347_8729" result="shape"/>
</filter>
<filter id="filter7_d_1347_8729" x="161.872" y="122.102" width="12.6389" height="45.299" filterUnits="userSpaceOnUse" color-interpolation-filters="sRGB">
<feFlood flood-opacity="0" result="BackgroundImageFix"/>
<feColorMatrix in="SourceAlpha" type="matrix" values="0 0 0 0 0 0 0 0 0 0 0 0 0 0 0 0 0 0 127 0" result="hardAlpha"/>
<feOffset dy="1.3726"/>
<feGaussianBlur stdDeviation="1.3726"/>
<feColorMatrix type="matrix" values="0 0 0 0 0.104167 0 0 0 0 0.4625 0 0 0 0 1 0 0 0 0.15 0"/>
<feBlend mode="normal" in2="BackgroundImageFix" result="effect1_dropShadow_1347_8729"/>
<feBlend mode="normal" in="SourceGraphic" in2="effect1_dropShadow_1347_8729" result="shape"/>
</filter>
<filter id="filter8_d_1347_8729" x="171.583" y="117.768" width="12.8342" height="49.114" filterUnits="userSpaceOnUse" color-interpolation-filters="sRGB">
<feFlood flood-opacity="0" result="BackgroundImageFix"/>
<feColorMatrix in="SourceAlpha" type="matrix" values="0 0 0 0 0 0 0 0 0 0 0 0 0 0 0 0 0 0 127 0" result="hardAlpha"/>
<feOffset dy="1.3726"/>
<feGaussianBlur stdDeviation="1.3726"/>
<feColorMatrix type="matrix" values="0 0 0 0 0.470588 0 0 0 0 0.172549 0 0 0 0 0.894118 0 0 0 0.23 0"/>
<feBlend mode="normal" in2="BackgroundImageFix" result="effect1_dropShadow_1347_8729"/>
<feBlend mode="normal" in="SourceGraphic" in2="effect1_dropShadow_1347_8729" result="shape"/>
</filter>
<filter id="filter9_d_1347_8729" x="106.058" y="38.554" width="28.2357" height="32.3866" filterUnits="userSpaceOnUse" color-interpolation-filters="sRGB">
<feFlood flood-opacity="0" result="BackgroundImageFix"/>
<feColorMatrix in="SourceAlpha" type="matrix" values="0 0 0 0 0 0 0 0 0 0 0 0 0 0 0 0 0 0 127 0" result="hardAlpha"/>
<feOffset dy="1.77802"/>
<feGaussianBlur stdDeviation="0.889012"/>
<feColorMatrix type="matrix" values="0 0 0 0 0.470588 0 0 0 0 0.172549 0 0 0 0 0.894118 0 0 0 0.16 0"/>
<feBlend mode="normal" in2="BackgroundImageFix" result="effect1_dropShadow_1347_8729"/>
<feBlend mode="normal" in="SourceGraphic" in2="effect1_dropShadow_1347_8729" result="shape"/>
</filter>
<filter id="filter10_d_1347_8729" x="110.232" y="59.6642" width="22.2934" height="17.1616" filterUnits="userSpaceOnUse" color-interpolation-filters="sRGB">
<feFlood flood-opacity="0" result="BackgroundImageFix"/>
<feColorMatrix in="SourceAlpha" type="matrix" values="0 0 0 0 0 0 0 0 0 0 0 0 0 0 0 0 0 0 127 0" result="hardAlpha"/>
<feOffset dy="0.889012"/>
<feGaussianBlur stdDeviation="1.55577"/>
<feColorMatrix type="matrix" values="0 0 0 0 1 0 0 0 0 0.80475 0 0 0 0 0.1125 0 0 0 0.12 0"/>
<feBlend mode="normal" in2="BackgroundImageFix" result="effect1_dropShadow_1347_8729"/>
<feBlend mode="normal" in="SourceGraphic" in2="effect1_dropShadow_1347_8729" result="shape"/>
</filter>
<filter id="filter11_d_1347_8729" x="96.4485" y="38.9278" width="24.2045" height="37.0268" filterUnits="userSpaceOnUse" color-interpolation-filters="sRGB">
<feFlood flood-opacity="0" result="BackgroundImageFix"/>
<feColorMatrix in="SourceAlpha" type="matrix" values="0 0 0 0 0 0 0 0 0 0 0 0 0 0 0 0 0 0 127 0" result="hardAlpha"/>
<feOffset dy="1.33352"/>
<feGaussianBlur stdDeviation="0.889012"/>
<feColorMatrix type="matrix" values="0 0 0 0 0.104167 0 0 0 0 0.4625 0 0 0 0 1 0 0 0 0.18 0"/>
<feBlend mode="normal" in2="BackgroundImageFix" result="effect1_dropShadow_1347_8729"/>
<feBlend mode="normal" in="SourceGraphic" in2="effect1_dropShadow_1347_8729" result="shape"/>
</filter>
<filter id="filter12_d_1347_8729" x="136.993" y="-2.05515" width="181.795" height="212.283" filterUnits="userSpaceOnUse" color-interpolation-filters="sRGB">
<feFlood flood-opacity="0" result="BackgroundImageFix"/>
<feColorMatrix in="SourceAlpha" type="matrix" values="0 0 0 0 0 0 0 0 0 0 0 0 0 0 0 0 0 0 127 0" result="hardAlpha"/>
<feOffset dy="1.40851"/>
<feGaussianBlur stdDeviation="11.9723"/>
<feColorMatrix type="matrix" values="0 0 0 0 0.121042 0 0 0 0 0.143938 0 0 0 0 0.35 0 0 0 0.27 0"/>
<feBlend mode="normal" in2="BackgroundImageFix" result="effect1_dropShadow_1347_8729"/>
<feBlend mode="normal" in="SourceGraphic" in2="effect1_dropShadow_1347_8729" result="shape"/>
</filter>
<filter id="filter13_d_1347_8729" x="182.98" y="79.4954" width="82.1262" height="77.9641" filterUnits="userSpaceOnUse" color-interpolation-filters="sRGB">
<feFlood flood-opacity="0" result="BackgroundImageFix"/>
<feColorMatrix in="SourceAlpha" type="matrix" values="0 0 0 0 0 0 0 0 0 0 0 0 0 0 0 0 0 0 127 0" result="hardAlpha"/>
<feOffset dy="2.81701"/>
<feGaussianBlur stdDeviation="1.40851"/>
<feColorMatrix type="matrix" values="0 0 0 0 0.104167 0 0 0 0 0.4625 0 0 0 0 1 0 0 0 0.22 0"/>
<feBlend mode="normal" in2="BackgroundImageFix" result="effect1_dropShadow_1347_8729"/>
<feBlend mode="normal" in="SourceGraphic" in2="effect1_dropShadow_1347_8729" result="shape"/>
</filter>
<filter id="filter14_d_1347_8729" x="199.981" y="34.8457" width="80.1779" height="26.8647" filterUnits="userSpaceOnUse" color-interpolation-filters="sRGB">
<feFlood flood-opacity="0" result="BackgroundImageFix"/>
<feColorMatrix in="SourceAlpha" type="matrix" values="0 0 0 0 0 0 0 0 0 0 0 0 0 0 0 0 0 0 127 0" result="hardAlpha"/>
<feOffset dy="1.3726"/>
<feGaussianBlur stdDeviation="1.3726"/>
<feColorMatrix type="matrix" values="0 0 0 0 0.104167 0 0 0 0 0.4625 0 0 0 0 1 0 0 0 0.13 0"/>
<feBlend mode="normal" in2="BackgroundImageFix" result="effect1_dropShadow_1347_8729"/>
<feBlend mode="normal" in="SourceGraphic" in2="effect1_dropShadow_1347_8729" result="shape"/>
</filter>
<clipPath id="clip0_1347_8729">
<rect width="380.817" height="205.551" fill="white" transform="translate(0.59375)"/>
</clipPath>
</defs>
</svg>
