<svg width="148" height="130" viewBox="0 0 148 130" fill="none" xmlns="http://www.w3.org/2000/svg">
<g filter="url(#filter0_d_1468_7374)">
<rect x="10" y="35.1763" width="75.7241" height="82.32" rx="14" fill="white"/>
</g>
<g filter="url(#filter1_d_1468_7374)">
<rect x="28.8828" y="92.9663" width="6.03287" height="6.02298" rx="1.71722" fill="#FFCD1D"/>
</g>
<g filter="url(#filter2_d_1468_7374)">
<rect x="28.8828" y="102.603" width="6.03287" height="6.02298" rx="1.71722" fill="#1B76FF"/>
</g>
<rect opacity="0.5" x="37.5547" y="94.4805" width="19.286" height="2.99508" rx="1.49754" fill="#BEBFCC"/>
<rect opacity="0.5" x="37.5547" y="104.117" width="29.2802" height="2.99508" rx="1.49754" fill="#BEBFCC"/>
<g filter="url(#filter3_d_1468_7374)">
<path d="M67.74 66.5228C67.74 70.7656 66.4798 74.9131 64.1188 78.4408C61.7577 81.9686 58.4019 84.7181 54.4756 86.3418C50.5493 87.9654 46.229 88.3903 42.0609 87.5625C37.8928 86.7348 34.0641 84.6917 31.0591 81.6916C28.054 78.6915 26.0076 74.8691 25.1785 70.7078C24.3494 66.5466 24.7749 62.2333 26.4012 58.3135C28.0276 54.3936 30.7816 51.0433 34.3152 48.6861C37.8487 46.3289 42.0031 45.0708 46.2528 45.0708V66.5228H67.74Z" fill="#FFCD1D"/>
</g>
<g filter="url(#filter4_d_1468_7374)">
<path d="M49.4716 41.853C52.2933 41.853 55.0874 42.4079 57.6944 43.486C60.3013 44.564 62.67 46.1442 64.6653 48.1362C66.6606 50.1282 68.2433 52.493 69.3231 55.0957C70.403 57.6984 70.9588 60.4879 70.9588 63.305L49.4716 63.305V41.853Z" fill="#1B76FF"/>
</g>
<g filter="url(#filter5_d_1468_7374)">
<rect x="56.2734" y="12.4961" width="75.7241" height="90.1067" rx="14" fill="white"/>
</g>
<g filter="url(#filter6_d_1468_7374)">
<rect x="102.016" y="24.5825" width="4.50239" height="27.9539" rx="2.25119" fill="#FFCD1D"/>
</g>
<g filter="url(#filter7_d_1468_7374)">
<rect x="111.023" y="36.3525" width="4.50239" height="16.1839" rx="2.25119" fill="#FF961B"/>
</g>
<g filter="url(#filter8_d_1468_7374)">
<rect x="120.031" y="28.2607" width="4.50239" height="24.2758" rx="2.25119" fill="#F4263E"/>
</g>
<rect opacity="0.5" x="65.7578" y="59.5674" width="49.7024" height="2.99508" rx="1.49754" fill="#BEBFCC"/>
<rect opacity="0.5" x="65.7578" y="66.5562" width="27.1902" height="2.99508" rx="1.49754" fill="#BEBFCC"/>
<rect opacity="0.5" x="65.7578" y="73.4912" width="58.7739" height="3.10166" rx="1.55083" fill="#BEBFCC"/>
<g filter="url(#filter9_d_1468_7374)">
<rect x="65.7578" y="80.5332" width="33.4285" height="2.99508" rx="1.49754" fill="#782CE4"/>
</g>
<rect opacity="0.5" x="65.7578" y="87.5215" width="51.5554" height="2.99508" rx="1.49754" fill="#BEBFCC"/>
<g filter="url(#filter10_d_1468_7374)">
<rect x="65.7578" y="24.5825" width="28" height="27.9541" rx="8" fill="#F4263E"/>
</g>
<path d="M79.7578 30.5728C78.1756 30.5728 76.6288 31.0412 75.3133 31.9188C73.9977 32.7964 72.9723 34.0438 72.3668 35.5032C71.7613 36.9626 71.6029 38.5685 71.9115 40.1178C72.2202 41.6671 72.9821 43.0902 74.101 44.2072C75.2198 45.3242 76.6452 46.0849 78.1971 46.3931C79.7489 46.7012 81.3575 46.5431 82.8193 45.9386C84.2811 45.334 85.5305 44.3103 86.4096 42.9969C87.2886 41.6835 87.7578 40.1393 87.7578 38.5596C87.7555 36.4421 86.9119 34.4119 85.4121 32.9146C83.9123 31.4173 81.8788 30.575 79.7578 30.5728V30.5728ZM82.9765 39.1547L78.0558 41.6106C77.9542 41.6613 77.8413 41.6852 77.7278 41.6801C77.6143 41.675 77.504 41.6411 77.4074 41.5815C77.3108 41.5219 77.231 41.4386 77.1756 41.3396C77.1203 41.2405 77.0912 41.129 77.0911 41.0156V36.1023C77.0912 35.989 77.1202 35.8775 77.1754 35.7784C77.2307 35.6794 77.3104 35.5961 77.407 35.5364C77.5035 35.4768 77.6137 35.4427 77.7272 35.4375C77.8406 35.4323 77.9535 35.4561 78.0551 35.5066L82.9771 37.9606C83.0886 38.0157 83.1824 38.1007 83.2479 38.2062C83.3135 38.3117 83.3482 38.4334 83.3481 38.5575C83.348 38.6816 83.3132 38.8033 83.2475 38.9087C83.1819 39.0141 83.088 39.0991 82.9765 39.154V39.1547Z" fill="white"/>
<defs>
<filter id="filter0_d_1468_7374" x="0" y="27.1763" width="95.7266" height="102.32" filterUnits="userSpaceOnUse" color-interpolation-filters="sRGB">
<feFlood flood-opacity="0" result="BackgroundImageFix"/>
<feColorMatrix in="SourceAlpha" type="matrix" values="0 0 0 0 0 0 0 0 0 0 0 0 0 0 0 0 0 0 127 0" result="hardAlpha"/>
<feOffset dy="2"/>
<feGaussianBlur stdDeviation="5"/>
<feColorMatrix type="matrix" values="0 0 0 0 0.121042 0 0 0 0 0.143938 0 0 0 0 0.35 0 0 0 0.1 0"/>
<feBlend mode="normal" in2="BackgroundImageFix" result="effect1_dropShadow_1468_7374"/>
<feBlend mode="normal" in="SourceGraphic" in2="effect1_dropShadow_1468_7374" result="shape"/>
</filter>
<filter id="filter1_d_1468_7374" x="27.509" y="92.6229" width="8.7788" height="8.7705" filterUnits="userSpaceOnUse" color-interpolation-filters="sRGB">
<feFlood flood-opacity="0" result="BackgroundImageFix"/>
<feColorMatrix in="SourceAlpha" type="matrix" values="0 0 0 0 0 0 0 0 0 0 0 0 0 0 0 0 0 0 127 0" result="hardAlpha"/>
<feOffset dy="1.03033"/>
<feGaussianBlur stdDeviation="0.686887"/>
<feColorMatrix type="matrix" values="0 0 0 0 1 0 0 0 0 0.80475 0 0 0 0 0.1125 0 0 0 0.25 0"/>
<feBlend mode="normal" in2="BackgroundImageFix" result="effect1_dropShadow_1468_7374"/>
<feBlend mode="normal" in="SourceGraphic" in2="effect1_dropShadow_1468_7374" result="shape"/>
</filter>
<filter id="filter2_d_1468_7374" x="27.509" y="102.26" width="8.7788" height="8.7705" filterUnits="userSpaceOnUse" color-interpolation-filters="sRGB">
<feFlood flood-opacity="0" result="BackgroundImageFix"/>
<feColorMatrix in="SourceAlpha" type="matrix" values="0 0 0 0 0 0 0 0 0 0 0 0 0 0 0 0 0 0 127 0" result="hardAlpha"/>
<feOffset dy="1.03033"/>
<feGaussianBlur stdDeviation="0.686887"/>
<feColorMatrix type="matrix" values="0 0 0 0 0.104167 0 0 0 0 0.4625 0 0 0 0 1 0 0 0 0.18 0"/>
<feBlend mode="normal" in2="BackgroundImageFix" result="effect1_dropShadow_1468_7374"/>
<feBlend mode="normal" in="SourceGraphic" in2="effect1_dropShadow_1468_7374" result="shape"/>
</filter>
<filter id="filter3_d_1468_7374" x="18.7656" y="44.0708" width="54.9766" height="54.9038" filterUnits="userSpaceOnUse" color-interpolation-filters="sRGB">
<feFlood flood-opacity="0" result="BackgroundImageFix"/>
<feColorMatrix in="SourceAlpha" type="matrix" values="0 0 0 0 0 0 0 0 0 0 0 0 0 0 0 0 0 0 127 0" result="hardAlpha"/>
<feOffset dy="5"/>
<feGaussianBlur stdDeviation="3"/>
<feColorMatrix type="matrix" values="0 0 0 0 1 0 0 0 0 0.80475 0 0 0 0 0.1125 0 0 0 0.24 0"/>
<feBlend mode="normal" in2="BackgroundImageFix" result="effect1_dropShadow_1468_7374"/>
<feBlend mode="normal" in="SourceGraphic" in2="effect1_dropShadow_1468_7374" result="shape"/>
</filter>
<filter id="filter4_d_1468_7374" x="44.4688" y="39.853" width="31.4922" height="31.4521" filterUnits="userSpaceOnUse" color-interpolation-filters="sRGB">
<feFlood flood-opacity="0" result="BackgroundImageFix"/>
<feColorMatrix in="SourceAlpha" type="matrix" values="0 0 0 0 0 0 0 0 0 0 0 0 0 0 0 0 0 0 127 0" result="hardAlpha"/>
<feOffset dy="3"/>
<feGaussianBlur stdDeviation="2.5"/>
<feColorMatrix type="matrix" values="0 0 0 0 0.104167 0 0 0 0 0.4625 0 0 0 0 1 0 0 0 0.26 0"/>
<feBlend mode="normal" in2="BackgroundImageFix" result="effect1_dropShadow_1468_7374"/>
<feBlend mode="normal" in="SourceGraphic" in2="effect1_dropShadow_1468_7374" result="shape"/>
</filter>
<filter id="filter5_d_1468_7374" x="40.2734" y="0.496094" width="107.727" height="122.106" filterUnits="userSpaceOnUse" color-interpolation-filters="sRGB">
<feFlood flood-opacity="0" result="BackgroundImageFix"/>
<feColorMatrix in="SourceAlpha" type="matrix" values="0 0 0 0 0 0 0 0 0 0 0 0 0 0 0 0 0 0 127 0" result="hardAlpha"/>
<feOffset dy="4"/>
<feGaussianBlur stdDeviation="8"/>
<feColorMatrix type="matrix" values="0 0 0 0 0.121042 0 0 0 0 0.143938 0 0 0 0 0.35 0 0 0 0.11 0"/>
<feBlend mode="normal" in2="BackgroundImageFix" result="effect1_dropShadow_1468_7374"/>
<feBlend mode="normal" in="SourceGraphic" in2="effect1_dropShadow_1468_7374" result="shape"/>
</filter>
<filter id="filter6_d_1468_7374" x="99.7644" y="24.5825" width="9.00239" height="32.4565" filterUnits="userSpaceOnUse" color-interpolation-filters="sRGB">
<feFlood flood-opacity="0" result="BackgroundImageFix"/>
<feColorMatrix in="SourceAlpha" type="matrix" values="0 0 0 0 0 0 0 0 0 0 0 0 0 0 0 0 0 0 127 0" result="hardAlpha"/>
<feOffset dy="2.25119"/>
<feGaussianBlur stdDeviation="1.1256"/>
<feColorMatrix type="matrix" values="0 0 0 0 0.956863 0 0 0 0 0.14902 0 0 0 0 0.243137 0 0 0 0.12 0"/>
<feBlend mode="normal" in2="BackgroundImageFix" result="effect1_dropShadow_1468_7374"/>
<feBlend mode="normal" in="SourceGraphic" in2="effect1_dropShadow_1468_7374" result="shape"/>
</filter>
<filter id="filter7_d_1468_7374" x="108.772" y="35.7897" width="9.00239" height="20.6865" filterUnits="userSpaceOnUse" color-interpolation-filters="sRGB">
<feFlood flood-opacity="0" result="BackgroundImageFix"/>
<feColorMatrix in="SourceAlpha" type="matrix" values="0 0 0 0 0 0 0 0 0 0 0 0 0 0 0 0 0 0 127 0" result="hardAlpha"/>
<feOffset dy="1.68839"/>
<feGaussianBlur stdDeviation="1.1256"/>
<feColorMatrix type="matrix" values="0 0 0 0 1 0 0 0 0 0.587917 0 0 0 0 0.104167 0 0 0 0.35 0"/>
<feBlend mode="normal" in2="BackgroundImageFix" result="effect1_dropShadow_1468_7374"/>
<feBlend mode="normal" in="SourceGraphic" in2="effect1_dropShadow_1468_7374" result="shape"/>
</filter>
<filter id="filter8_d_1468_7374" x="117.78" y="28.2607" width="9.00239" height="28.7783" filterUnits="userSpaceOnUse" color-interpolation-filters="sRGB">
<feFlood flood-opacity="0" result="BackgroundImageFix"/>
<feColorMatrix in="SourceAlpha" type="matrix" values="0 0 0 0 0 0 0 0 0 0 0 0 0 0 0 0 0 0 127 0" result="hardAlpha"/>
<feOffset dy="2.25119"/>
<feGaussianBlur stdDeviation="1.1256"/>
<feColorMatrix type="matrix" values="0 0 0 0 0.956863 0 0 0 0 0.14902 0 0 0 0 0.243137 0 0 0 0.12 0"/>
<feBlend mode="normal" in2="BackgroundImageFix" result="effect1_dropShadow_1468_7374"/>
<feBlend mode="normal" in="SourceGraphic" in2="effect1_dropShadow_1468_7374" result="shape"/>
</filter>
<filter id="filter9_d_1468_7374" x="62.7578" y="79.5332" width="39.4297" height="8.99512" filterUnits="userSpaceOnUse" color-interpolation-filters="sRGB">
<feFlood flood-opacity="0" result="BackgroundImageFix"/>
<feColorMatrix in="SourceAlpha" type="matrix" values="0 0 0 0 0 0 0 0 0 0 0 0 0 0 0 0 0 0 127 0" result="hardAlpha"/>
<feOffset dy="2"/>
<feGaussianBlur stdDeviation="1.5"/>
<feColorMatrix type="matrix" values="0 0 0 0 0.470588 0 0 0 0 0.172549 0 0 0 0 0.894118 0 0 0 0.19 0"/>
<feBlend mode="normal" in2="BackgroundImageFix" result="effect1_dropShadow_1468_7374"/>
<feBlend mode="normal" in="SourceGraphic" in2="effect1_dropShadow_1468_7374" result="shape"/>
</filter>
<filter id="filter10_d_1468_7374" x="58.7578" y="22.5825" width="42" height="41.9541" filterUnits="userSpaceOnUse" color-interpolation-filters="sRGB">
<feFlood flood-opacity="0" result="BackgroundImageFix"/>
<feColorMatrix in="SourceAlpha" type="matrix" values="0 0 0 0 0 0 0 0 0 0 0 0 0 0 0 0 0 0 127 0" result="hardAlpha"/>
<feOffset dy="5"/>
<feGaussianBlur stdDeviation="3.5"/>
<feColorMatrix type="matrix" values="0 0 0 0 0.956863 0 0 0 0 0.14902 0 0 0 0 0.243137 0 0 0 0.23 0"/>
<feBlend mode="normal" in2="BackgroundImageFix" result="effect1_dropShadow_1468_7374"/>
<feBlend mode="normal" in="SourceGraphic" in2="effect1_dropShadow_1468_7374" result="shape"/>
</filter>
</defs>
</svg>
