<svg width="358" height="246" viewBox="0 0 358 246" fill="none" xmlns="http://www.w3.org/2000/svg">
<g filter="url(#filter0_d_1457_8594)">
<rect x="24.5" y="13.9998" width="309" height="198" rx="30" fill="#FFCD1D"/>
</g>
<g filter="url(#filter1_d_1457_8594)">
<rect x="149.602" y="38.4998" width="119.464" height="149" rx="15.9285" fill="white"/>
<path d="M167.521 153.738H173.708C176.457 153.738 178.686 155.967 178.686 158.716V164.904C178.685 167.653 176.457 169.881 173.708 169.881H167.521C164.771 169.881 162.542 167.653 162.542 164.904V158.716C162.542 155.967 164.771 153.738 167.521 153.738Z" stroke="#BEBFCC" stroke-width="1.99106"/>
<path d="M167.521 129.631H173.708C176.457 129.631 178.686 131.86 178.686 134.609V140.797C178.685 143.546 176.457 145.774 173.708 145.774H167.521C164.771 145.774 162.542 143.546 162.542 140.797V134.609C162.542 131.86 164.771 129.631 167.521 129.631Z" stroke="#BEBFCC" stroke-width="1.99106"/>
<g filter="url(#filter2_d_1457_8594)">
<path d="M161.547 61.0967C161.547 57.7978 164.221 55.1235 167.52 55.1235H173.708C177.007 55.1235 179.681 57.7978 179.681 61.0967V67.2845C179.681 70.5834 177.007 73.2577 173.708 73.2577H167.52C164.221 73.2577 161.547 70.5834 161.547 67.2845V61.0967Z" fill="#FFCD1D"/>
</g>
<path d="M174.896 59.6038L169.149 67.8136C169.073 67.9225 168.973 68.0119 168.856 68.0744C168.738 68.1368 168.608 68.1705 168.475 68.1727C168.343 68.1749 168.211 68.1455 168.092 68.087C167.973 68.0284 167.869 67.9424 167.79 67.836L166.328 65.8871" stroke="white" stroke-width="1.99106" stroke-linecap="round" stroke-linejoin="round"/>
<g filter="url(#filter3_d_1457_8594)">
<path d="M161.547 86.199C161.547 82.9001 164.221 80.2258 167.52 80.2258H173.708C177.007 80.2258 179.681 82.9001 179.681 86.199V92.3868C179.681 95.6857 177.007 98.36 173.708 98.36H167.52C164.221 98.36 161.547 95.6857 161.547 92.3868V86.199Z" fill="#FFCD1D"/>
</g>
<g filter="url(#filter4_d_1457_8594)">
<path d="M161.547 110.306C161.547 107.007 164.221 104.333 167.52 104.333H173.708C177.007 104.333 179.681 107.007 179.681 110.306V116.494C179.681 119.793 177.007 122.467 173.708 122.467H167.52C164.221 122.467 161.547 119.793 161.547 116.494V110.306Z" fill="#FFCD1D"/>
</g>
<rect opacity="0.5" x="185.656" y="60.2085" width="30.6545" height="7.96424" rx="3.98212" fill="#BEBFCC"/>
<rect opacity="0.5" x="186.047" y="85.311" width="69.2936" height="7.96424" rx="3.98212" fill="#BEBFCC"/>
<rect opacity="0.5" x="185.656" y="110.872" width="44.7989" height="7.96424" rx="3.98212" fill="#BEBFCC"/>
<rect opacity="0.5" x="185.656" y="133.721" width="57.513" height="7.96424" rx="3.98212" fill="#BEBFCC"/>
<rect opacity="0.5" x="185.656" y="157.828" width="69.6871" height="7.96424" rx="3.98212" fill="#BEBFCC"/>
<path d="M174.896 85.0088L169.149 93.2186C169.073 93.3276 168.973 93.4169 168.856 93.4794C168.738 93.5418 168.608 93.5755 168.475 93.5777C168.343 93.5799 168.211 93.5505 168.092 93.492C167.973 93.4335 167.869 93.3475 167.79 93.2411L166.328 91.2921" stroke="white" stroke-width="1.99106" stroke-linecap="round" stroke-linejoin="round"/>
<path d="M174.896 109.116L169.149 117.326C169.073 117.435 168.973 117.524 168.856 117.587C168.738 117.649 168.608 117.683 168.475 117.685C168.343 117.687 168.211 117.658 168.092 117.599C167.973 117.541 167.869 117.455 167.79 117.348L166.328 115.399" stroke="white" stroke-width="1.99106" stroke-linecap="round" stroke-linejoin="round"/>
</g>
<g filter="url(#filter5_d_1457_8594)">
<rect x="88.9375" y="74.9763" width="74.8396" height="74.1542" rx="19.9106" fill="white"/>
<g filter="url(#filter6_d_1457_8594)">
<path d="M130.338 130.7H122.369C122.188 130.7 122.01 130.746 121.851 130.834C121.693 130.923 121.56 131.05 121.465 131.204C121.37 131.358 121.316 131.534 121.308 131.715C121.3 131.896 121.338 132.076 121.419 132.238L122.133 133.664C122.484 134.371 123.025 134.965 123.696 135.38C124.366 135.795 125.14 136.014 125.929 136.013H126.779C127.567 136.015 128.34 135.798 129.011 135.385C129.682 134.972 130.224 134.38 130.577 133.675L131.291 132.249C131.372 132.087 131.41 131.907 131.402 131.725C131.394 131.544 131.34 131.368 131.244 131.214C131.149 131.06 131.015 130.932 130.857 130.844C130.698 130.756 130.52 130.71 130.338 130.71V130.7Z" fill="#FFCD1D"/>
<path d="M126.354 94.5716C126.917 94.5716 127.458 94.3477 127.856 93.9492C128.255 93.5506 128.479 93.0101 128.479 92.4464V87.1335C128.479 86.5699 128.255 86.0293 127.856 85.6308C127.458 85.2322 126.917 85.0083 126.354 85.0083C125.79 85.0083 125.25 85.2322 124.851 85.6308C124.452 86.0293 124.229 86.5699 124.229 87.1335V92.4464C124.229 93.0101 124.452 93.5506 124.851 93.9492C125.25 94.3477 125.79 94.5716 126.354 94.5716Z" fill="#FFCD1D"/>
<path d="M145.888 93.1008C145.49 92.7024 144.949 92.4785 144.386 92.4785C143.822 92.4785 143.282 92.7024 142.883 93.1008L139.128 96.8581C138.925 97.0541 138.763 97.2886 138.652 97.5479C138.541 97.8072 138.482 98.0861 138.479 98.3683C138.477 98.6504 138.531 98.9303 138.638 99.1915C138.745 99.4526 138.902 99.6899 139.102 99.8895C139.301 100.089 139.539 100.247 139.8 100.354C140.061 100.461 140.341 100.514 140.623 100.512C140.905 100.509 141.184 100.451 141.443 100.339C141.703 100.228 141.937 100.066 142.133 99.8631L145.888 96.1058C146.287 95.7073 146.511 95.1668 146.511 94.6033C146.511 94.0398 146.287 93.4993 145.888 93.1008Z" fill="#FFCD1D"/>
<path d="M149.731 110.511H145.48C144.917 110.511 144.376 110.734 143.978 111.133C143.579 111.532 143.355 112.072 143.355 112.636C143.355 113.199 143.579 113.74 143.978 114.138C144.376 114.537 144.917 114.761 145.48 114.761H149.731C150.294 114.761 150.835 114.537 151.234 114.138C151.632 113.74 151.856 113.199 151.856 112.636C151.856 112.072 151.632 111.532 151.234 111.133C150.835 110.734 150.294 110.511 149.731 110.511Z" fill="#FFCD1D"/>
<path d="M113.581 96.8584L109.824 93.1011C109.423 92.714 108.886 92.4998 108.329 92.5046C107.772 92.5095 107.239 92.733 106.845 93.127C106.451 93.521 106.227 94.0541 106.223 94.6113C106.218 95.1685 106.432 95.7053 106.819 96.1061L110.576 99.8635C110.977 100.251 111.514 100.465 112.071 100.46C112.629 100.455 113.162 100.232 113.556 99.8376C113.95 99.4435 114.173 98.9105 114.178 98.3533C114.183 97.7961 113.969 97.2593 113.581 96.8584Z" fill="#FFCD1D"/>
<path d="M107.227 110.511H102.977C102.413 110.511 101.873 110.734 101.474 111.133C101.075 111.532 100.852 112.072 100.852 112.636C100.852 113.199 101.075 113.74 101.474 114.138C101.873 114.537 102.413 114.761 102.977 114.761H107.227C107.791 114.761 108.331 114.537 108.73 114.138C109.128 113.74 109.352 113.199 109.352 112.636C109.352 112.072 109.128 111.532 108.73 111.133C108.331 110.734 107.791 110.511 107.227 110.511Z" fill="#FFCD1D"/>
<path d="M126.354 97.7594C123.417 97.7638 120.558 98.704 118.192 100.444C115.826 102.183 114.076 104.632 113.195 107.433C112.315 110.235 112.351 113.245 113.298 116.025C114.244 118.805 116.052 121.211 118.459 122.894C118.6 122.992 118.715 123.122 118.795 123.275C118.874 123.427 118.916 123.596 118.916 123.767V125.387C118.916 125.95 119.14 126.491 119.538 126.89C119.937 127.288 120.477 127.512 121.041 127.512H131.667C132.23 127.512 132.771 127.288 133.169 126.89C133.568 126.491 133.792 125.95 133.792 125.387V123.765C133.792 123.594 133.833 123.425 133.913 123.272C133.993 123.12 134.108 122.99 134.249 122.892C136.662 121.213 138.475 118.807 139.426 116.025C140.376 113.243 140.414 110.23 139.533 107.426C138.652 104.621 136.898 102.171 134.528 100.432C132.157 98.6937 129.294 97.7572 126.354 97.7594Z" fill="#FFCD1D"/>
</g>
</g>
<defs>
<filter id="filter0_d_1457_8594" x="0.5" y="-0.000244141" width="357" height="246" filterUnits="userSpaceOnUse" color-interpolation-filters="sRGB">
<feFlood flood-opacity="0" result="BackgroundImageFix"/>
<feColorMatrix in="SourceAlpha" type="matrix" values="0 0 0 0 0 0 0 0 0 0 0 0 0 0 0 0 0 0 127 0" result="hardAlpha"/>
<feOffset dy="10"/>
<feGaussianBlur stdDeviation="12"/>
<feColorMatrix type="matrix" values="0 0 0 0 1 0 0 0 0 0.80475 0 0 0 0 0.1125 0 0 0 0.21 0"/>
<feBlend mode="normal" in2="BackgroundImageFix" result="effect1_dropShadow_1457_8594"/>
<feBlend mode="normal" in="SourceGraphic" in2="effect1_dropShadow_1457_8594" result="shape"/>
</filter>
<filter id="filter1_d_1457_8594" x="125.602" y="24.4998" width="167.461" height="197" filterUnits="userSpaceOnUse" color-interpolation-filters="sRGB">
<feFlood flood-opacity="0" result="BackgroundImageFix"/>
<feColorMatrix in="SourceAlpha" type="matrix" values="0 0 0 0 0 0 0 0 0 0 0 0 0 0 0 0 0 0 127 0" result="hardAlpha"/>
<feOffset dy="10"/>
<feGaussianBlur stdDeviation="12"/>
<feColorMatrix type="matrix" values="0 0 0 0 1 0 0 0 0 0.80475 0 0 0 0 0.1125 0 0 0 0.21 0"/>
<feBlend mode="normal" in2="BackgroundImageFix" result="effect1_dropShadow_1457_8594"/>
<feBlend mode="normal" in="SourceGraphic" in2="effect1_dropShadow_1457_8594" result="shape"/>
</filter>
<filter id="filter2_d_1457_8594" x="157.843" y="54.1975" width="25.5414" height="25.5426" filterUnits="userSpaceOnUse" color-interpolation-filters="sRGB">
<feFlood flood-opacity="0" result="BackgroundImageFix"/>
<feColorMatrix in="SourceAlpha" type="matrix" values="0 0 0 0 0 0 0 0 0 0 0 0 0 0 0 0 0 0 127 0" result="hardAlpha"/>
<feOffset dy="2.77822"/>
<feGaussianBlur stdDeviation="1.85215"/>
<feColorMatrix type="matrix" values="0 0 0 0 1 0 0 0 0 0.80475 0 0 0 0 0.1125 0 0 0 0.29 0"/>
<feBlend mode="normal" in2="BackgroundImageFix" result="effect1_dropShadow_1457_8594"/>
<feBlend mode="normal" in="SourceGraphic" in2="effect1_dropShadow_1457_8594" result="shape"/>
</filter>
<filter id="filter3_d_1457_8594" x="157.843" y="79.2998" width="25.5414" height="25.5426" filterUnits="userSpaceOnUse" color-interpolation-filters="sRGB">
<feFlood flood-opacity="0" result="BackgroundImageFix"/>
<feColorMatrix in="SourceAlpha" type="matrix" values="0 0 0 0 0 0 0 0 0 0 0 0 0 0 0 0 0 0 127 0" result="hardAlpha"/>
<feOffset dy="2.77822"/>
<feGaussianBlur stdDeviation="1.85215"/>
<feColorMatrix type="matrix" values="0 0 0 0 1 0 0 0 0 0.80475 0 0 0 0 0.1125 0 0 0 0.29 0"/>
<feBlend mode="normal" in2="BackgroundImageFix" result="effect1_dropShadow_1457_8594"/>
<feBlend mode="normal" in="SourceGraphic" in2="effect1_dropShadow_1457_8594" result="shape"/>
</filter>
<filter id="filter4_d_1457_8594" x="157.843" y="103.407" width="25.5414" height="25.5426" filterUnits="userSpaceOnUse" color-interpolation-filters="sRGB">
<feFlood flood-opacity="0" result="BackgroundImageFix"/>
<feColorMatrix in="SourceAlpha" type="matrix" values="0 0 0 0 0 0 0 0 0 0 0 0 0 0 0 0 0 0 127 0" result="hardAlpha"/>
<feOffset dy="2.77822"/>
<feGaussianBlur stdDeviation="1.85215"/>
<feColorMatrix type="matrix" values="0 0 0 0 1 0 0 0 0 0.80475 0 0 0 0 0.1125 0 0 0 0.29 0"/>
<feBlend mode="normal" in2="BackgroundImageFix" result="effect1_dropShadow_1457_8594"/>
<feBlend mode="normal" in="SourceGraphic" in2="effect1_dropShadow_1457_8594" result="shape"/>
</filter>
<filter id="filter5_d_1457_8594" x="64.9375" y="60.9763" width="122.836" height="122.154" filterUnits="userSpaceOnUse" color-interpolation-filters="sRGB">
<feFlood flood-opacity="0" result="BackgroundImageFix"/>
<feColorMatrix in="SourceAlpha" type="matrix" values="0 0 0 0 0 0 0 0 0 0 0 0 0 0 0 0 0 0 127 0" result="hardAlpha"/>
<feOffset dy="10"/>
<feGaussianBlur stdDeviation="12"/>
<feColorMatrix type="matrix" values="0 0 0 0 1 0 0 0 0 0.80475 0 0 0 0 0.1125 0 0 0 0.21 0"/>
<feBlend mode="normal" in2="BackgroundImageFix" result="effect1_dropShadow_1457_8594"/>
<feBlend mode="normal" in="SourceGraphic" in2="effect1_dropShadow_1457_8594" result="shape"/>
</filter>
<filter id="filter6_d_1457_8594" x="97.865" y="83.0172" width="56.981" height="56.9776" filterUnits="userSpaceOnUse" color-interpolation-filters="sRGB">
<feFlood flood-opacity="0" result="BackgroundImageFix"/>
<feColorMatrix in="SourceAlpha" type="matrix" values="0 0 0 0 0 0 0 0 0 0 0 0 0 0 0 0 0 0 127 0" result="hardAlpha"/>
<feOffset dy="0.99553"/>
<feGaussianBlur stdDeviation="1.4933"/>
<feColorMatrix type="matrix" values="0 0 0 0 1 0 0 0 0 0.80475 0 0 0 0 0.1125 0 0 0 0.2 0"/>
<feBlend mode="normal" in2="BackgroundImageFix" result="effect1_dropShadow_1457_8594"/>
<feBlend mode="normal" in="SourceGraphic" in2="effect1_dropShadow_1457_8594" result="shape"/>
</filter>
</defs>
</svg>
