<svg width="57" height="56" viewBox="0 0 57 56" fill="none" xmlns="http://www.w3.org/2000/svg">
<g filter="url(#filter0_d_1291_9234)">
<path d="M24.5006 16.7461C24.5006 14.537 26.2909 12.7458 28.5 12.7458C30.7091 12.7458 32.5003 14.537 32.5003 16.7461C32.5003 18.9552 30.7091 20.7464 28.5 20.7464C26.2909 20.7464 24.5006 18.9552 24.5006 16.7461ZM22.3381 16.7461C22.3381 20.1493 25.0968 22.9079 28.5 22.9079C31.9032 22.9079 34.6619 20.1493 34.6619 16.7461C34.6619 13.3429 31.9032 10.5842 28.5 10.5842C25.0968 10.5842 22.3382 13.3427 22.3382 16.7461H22.3381ZM33.4659 10.3399C33.4658 10.6247 33.5501 10.9032 33.7083 11.14C33.8664 11.3769 34.0912 11.5616 34.3543 11.6707C34.6174 11.7798 34.9069 11.8084 35.1863 11.7529C35.4656 11.6975 35.7222 11.5604 35.9237 11.3591C36.1252 11.1578 36.2624 10.9013 36.3181 10.622C36.3738 10.3427 36.3454 10.0531 36.2365 9.78996C36.1276 9.52679 35.9431 9.30182 35.7064 9.1435C35.4696 8.98517 35.1913 8.90061 34.9065 8.90049H34.9059C34.5241 8.90067 34.1581 9.05236 33.8881 9.32225C33.6181 9.59214 33.4662 9.95816 33.4659 10.3399ZM23.652 26.5139C22.482 26.4606 21.8461 26.2657 21.4236 26.1011C20.8633 25.883 20.4636 25.6232 20.0433 25.2035C19.623 24.7838 19.3628 24.3844 19.1457 23.8242C18.9809 23.4018 18.786 22.7657 18.7329 21.5957C18.6747 20.3308 18.6631 19.9509 18.6631 16.7463C18.6631 13.5417 18.6756 13.1628 18.7329 11.8968C18.7861 10.7269 18.9825 10.092 19.1457 9.6684C19.3638 9.10814 19.6236 8.7084 20.0433 8.28811C20.463 7.86782 20.8623 7.60766 21.4236 7.39051C21.846 7.22577 22.482 7.03089 23.652 6.97771C24.9169 6.91953 25.2969 6.90792 28.5 6.90792C31.7031 6.90792 32.0835 6.9203 33.3494 6.9779C34.5194 7.03118 35.1542 7.2275 35.5779 7.3907C36.1381 7.60785 36.5379 7.86859 36.9582 8.2883C37.3785 8.70801 37.6377 9.10833 37.8558 9.66859C38.0205 10.091 38.2154 10.7271 38.2686 11.897C38.3268 13.163 38.3384 13.5419 38.3384 16.7465C38.3384 19.9511 38.3268 20.33 38.2686 21.5959C38.2153 22.7659 38.0195 23.4018 37.8558 23.8244C37.6377 24.3846 37.3779 24.7844 36.9582 25.2037C36.5385 25.623 36.1381 25.8832 35.5779 26.1013C35.1555 26.266 34.5194 26.4609 33.3494 26.5141C32.0845 26.5723 31.7046 26.5839 28.5 26.5839C25.2954 26.5839 24.9165 26.5723 23.652 26.5141V26.5139ZM23.5526 4.81877C22.2752 4.87694 21.4022 5.0795 20.6399 5.37614C19.8509 5.68248 19.182 6.09345 18.5142 6.76027C17.8463 7.42709 17.4364 8.09601 17.13 8.886C16.8334 9.64881 16.6308 10.5213 16.5727 11.7987C16.5135 13.0782 16.5 13.4873 16.5 16.7461C16.5 20.0049 16.5135 20.414 16.5727 21.6935C16.6308 22.971 16.8334 23.8434 17.13 24.6062C17.4364 25.3952 17.8464 26.0654 18.5142 26.7319C19.182 27.3984 19.8499 27.8088 20.6399 28.116C21.4037 28.4127 22.2752 28.6152 23.5526 28.6734C24.8328 28.7316 25.2412 28.7461 28.5 28.7461C31.7588 28.7461 32.1679 28.7326 33.4474 28.6734C34.7249 28.6152 35.5973 28.4127 36.3601 28.116C37.1491 27.8088 37.818 27.3987 38.4858 26.7319C39.1537 26.0651 39.5628 25.3952 39.87 24.6062C40.1666 23.8434 40.3701 22.9709 40.4273 21.6935C40.4855 20.413 40.499 20.0049 40.499 16.7461C40.499 13.4873 40.4855 13.0782 40.4273 11.7987C40.3692 10.5212 40.1666 9.64833 39.87 8.886C39.5628 8.09697 39.1526 7.42814 38.4858 6.76027C37.819 6.0924 37.1491 5.68248 36.3611 5.37614C35.5973 5.0795 34.7248 4.87598 33.4483 4.81877C32.1686 4.7603 31.7598 4.74609 28.5014 4.74609C25.2431 4.74609 24.8333 4.75963 23.5531 4.81877" fill="url(#paint0_radial_1291_9234)"/>
</g>
<defs>
<filter id="filter0_d_1291_9234" x="0.975074" y="0.512023" width="55.0499" height="55.0499" filterUnits="userSpaceOnUse" color-interpolation-filters="sRGB">
<feFlood flood-opacity="0" result="BackgroundImageFix"/>
<feColorMatrix in="SourceAlpha" type="matrix" values="0 0 0 0 0 0 0 0 0 0 0 0 0 0 0 0 0 0 127 0" result="hardAlpha"/>
<feOffset dy="11.2909"/>
<feGaussianBlur stdDeviation="7.76246"/>
<feColorMatrix type="matrix" values="0 0 0 0 0.54902 0 0 0 0 0.227451 0 0 0 0 0.666667 0 0 0 0.15 0"/>
<feBlend mode="normal" in2="BackgroundImageFix" result="effect1_dropShadow_1291_9234"/>
<feBlend mode="normal" in="SourceGraphic" in2="effect1_dropShadow_1291_9234" result="shape"/>
</filter>
<radialGradient id="paint0_radial_1291_9234" cx="0" cy="0" r="1" gradientUnits="userSpaceOnUse" gradientTransform="translate(18.0532 28.2203) scale(30.4699 30.4711)">
<stop offset="0.09" stop-color="#FA8F21"/>
<stop offset="0.78" stop-color="#D82D7E"/>
</radialGradient>
</defs>
</svg>
