<svg width="25" height="25" viewBox="0 0 25 25" fill="none" xmlns="http://www.w3.org/2000/svg">
<path d="M0.5 3.53397C0.5 2.72588 0.770278 2.05921 1.31081 1.53397C1.85134 1.00871 2.55406 0.746094 3.41892 0.746094C4.26835 0.746094 4.95559 1.00466 5.4807 1.52185C6.02123 2.05518 6.29151 2.75012 6.29151 3.6067C6.29151 4.38246 6.02896 5.02891 5.50386 5.54609C4.96333 6.07943 4.2529 6.34609 3.37259 6.34609H3.34942C2.49999 6.34609 1.81275 6.07943 1.28764 5.54609C0.762541 5.01276 0.5 4.34205 0.5 3.53397ZM0.801158 24.7461V8.55215H5.94402V24.7461H0.801158ZM8.79344 24.7461H13.9363V15.7037C13.9363 15.138 13.9981 14.7016 14.1216 14.3946C14.3378 13.8451 14.666 13.3804 15.1062 13.0006C15.5463 12.6208 16.0984 12.4309 16.7625 12.4309C18.4923 12.4309 19.3571 13.6511 19.3571 16.0915V24.7461H24.5V15.4612C24.5 13.0693 23.9595 11.2552 22.8784 10.0188C21.7973 8.78246 20.3687 8.16428 18.5927 8.16428C16.6004 8.16428 15.0483 9.06124 13.9363 10.8552V10.9037H13.9131L13.9363 10.8552V8.55215H8.79344C8.82432 9.06932 8.83977 10.6774 8.83977 13.3764C8.83977 16.0754 8.82432 19.8653 8.79344 24.7461Z" fill="#0A66C2"/>
</svg>
