<svg width="149" height="30" viewBox="0 0 149 30" fill="none" xmlns="http://www.w3.org/2000/svg">
<g clip-path="url(#clip0_1291_9338)">
<g filter="url(#filter0_d_1291_9338)">
<path d="M44.954 10.725H48.454V23.65C48.454 27.475 45.229 29.925 41.429 29.925C38.304 29.925 35.804 28.275 35.004 25.775L38.204 24.2C38.629 25.675 39.779 26.55 41.429 26.55C43.304 26.55 44.704 25.425 44.704 23.65V22.325C43.754 23.225 42.429 23.7 40.904 23.7C37.204 23.7 34.104 21.05 34.104 17.025C34.104 12.9 37.354 10.425 40.829 10.425C42.604 10.425 44.004 11.075 44.954 12.175V10.725ZM41.379 20.3C43.304 20.3 44.704 18.975 44.704 17.075C44.704 15.125 43.254 13.8 41.379 13.8C39.504 13.8 37.979 15.125 37.979 17.075C37.979 18.975 39.454 20.3 41.379 20.3ZM56.9929 24.675C52.9429 24.675 49.6929 21.675 49.6929 17.55C49.6929 13.425 52.9429 10.425 56.9929 10.425C61.0429 10.425 64.2929 13.425 64.2929 17.55C64.2929 21.675 61.0429 24.675 56.9929 24.675ZM56.9929 21.3C59.0429 21.3 60.4179 19.75 60.4179 17.55C60.4179 15.375 59.0429 13.8 56.9929 13.8C54.9429 13.8 53.5679 15.375 53.5679 17.55C53.5679 19.75 54.9429 21.3 56.9929 21.3ZM73.2185 10.425C77.0935 10.425 80.1435 13.55 80.1435 17.55C80.1435 21.525 77.1435 24.675 73.1935 24.675C71.5935 24.675 70.2185 24.15 69.2935 23.3V29.375H65.5435V10.725H69.0435V12.15C69.9935 11.05 71.4685 10.425 73.2185 10.425ZM72.7435 21.3C74.7935 21.3 76.2685 19.725 76.2685 17.55C76.2685 15.375 74.7935 13.8 72.7435 13.8C70.7185 13.8 69.2935 15.35 69.2935 17.55C69.2935 19.75 70.7185 21.3 72.7435 21.3ZM88.6009 10.575H90.0259V13.825H88.2259C86.4009 13.825 85.1509 15 85.1509 17.025V24.375H81.4009V10.725H84.9009V12.775C85.6009 11.075 86.9259 10.575 88.6009 10.575ZM97.5827 24.675C93.5327 24.675 90.2827 21.675 90.2827 17.55C90.2827 13.425 93.5327 10.425 97.5827 10.425C101.633 10.425 104.883 13.425 104.883 17.55C104.883 21.675 101.633 24.675 97.5827 24.675ZM97.5827 21.3C99.6327 21.3 101.008 19.75 101.008 17.55C101.008 15.375 99.6327 13.8 97.5827 13.8C95.5327 13.8 94.1577 15.375 94.1577 17.55C94.1577 19.75 95.5327 21.3 97.5827 21.3ZM121.433 10.425C124.283 10.425 126.283 12.45 126.283 15.6V24.375H122.533V16.4C122.533 14.725 121.633 13.8 120.308 13.8C118.983 13.8 118.083 14.725 118.083 16.4V24.375H114.333V16.4C114.333 14.725 113.433 13.8 112.108 13.8C110.783 13.8 109.883 14.725 109.883 16.4V24.375H106.133V10.725H109.633V12.375C110.283 11.075 111.558 10.425 113.208 10.425C114.958 10.425 116.408 11.15 117.283 12.525C118.058 11.275 119.583 10.425 121.433 10.425ZM134.595 24.675C130.545 24.675 127.295 21.675 127.295 17.55C127.295 13.425 130.545 10.425 134.595 10.425C138.645 10.425 141.895 13.425 141.895 17.55C141.895 21.675 138.645 24.675 134.595 24.675ZM134.595 21.3C136.645 21.3 138.02 19.75 138.02 17.55C138.02 15.375 136.645 13.8 134.595 13.8C132.545 13.8 131.17 15.375 131.17 17.55C131.17 19.75 132.545 21.3 134.595 21.3Z" fill="#1F2559"/>
</g>
<path d="M148.313 22.4175C148.313 23.6128 147.344 24.5819 146.149 24.5819C144.953 24.5819 143.984 23.6128 143.984 22.4175C143.984 21.2221 144.953 20.2531 146.149 20.2531C147.344 20.2531 148.313 21.2221 148.313 22.4175Z" fill="#F4263E"/>
<g filter="url(#filter1_d_1291_9338)">
<rect y="17.9105" width="6.5" height="11.7145" rx="3.25" fill="#F4263E"/>
<rect x="9.75" y="7.95834" width="6.5" height="21.6667" rx="3.25" fill="#F4263E"/>
<rect x="19.5" y="0.375" width="6.5" height="29.25" rx="3.25" fill="#F4263E"/>
</g>
</g>
<defs>
<filter id="filter0_d_1291_9338" x="30.1016" y="8.425" width="115.797" height="27.5" filterUnits="userSpaceOnUse" color-interpolation-filters="sRGB">
<feFlood flood-opacity="0" result="BackgroundImageFix"/>
<feColorMatrix in="SourceAlpha" type="matrix" values="0 0 0 0 0 0 0 0 0 0 0 0 0 0 0 0 0 0 127 0" result="hardAlpha"/>
<feOffset dy="2"/>
<feGaussianBlur stdDeviation="2"/>
<feColorMatrix type="matrix" values="0 0 0 0 0.870833 0 0 0 0 0.163281 0 0 0 0 0.290641 0 0 0 0.05 0"/>
<feBlend mode="normal" in2="BackgroundImageFix" result="effect1_dropShadow_1291_9338"/>
<feBlend mode="normal" in="SourceGraphic" in2="effect1_dropShadow_1291_9338" result="shape"/>
</filter>
<filter id="filter1_d_1291_9338" x="-11.1865" y="-5.21824" width="48.373" height="51.623" filterUnits="userSpaceOnUse" color-interpolation-filters="sRGB">
<feFlood flood-opacity="0" result="BackgroundImageFix"/>
<feColorMatrix in="SourceAlpha" type="matrix" values="0 0 0 0 0 0 0 0 0 0 0 0 0 0 0 0 0 0 127 0" result="hardAlpha"/>
<feOffset dy="5.59324"/>
<feGaussianBlur stdDeviation="5.59324"/>
<feColorMatrix type="matrix" values="0 0 0 0 0.956863 0 0 0 0 0.14902 0 0 0 0 0.243137 0 0 0 0.21 0"/>
<feBlend mode="normal" in2="BackgroundImageFix" result="effect1_dropShadow_1291_9338"/>
<feBlend mode="normal" in="SourceGraphic" in2="effect1_dropShadow_1291_9338" result="shape"/>
</filter>
<clipPath id="clip0_1291_9338">
<rect width="148.313" height="29.25" fill="white" transform="translate(0 0.375)"/>
</clipPath>
</defs>
</svg>
