<svg width="94" height="94" viewBox="0 0 94 94" fill="none" xmlns="http://www.w3.org/2000/svg">
<rect opacity="0.1" width="94" height="94" rx="26" fill="#1B76FF"/>
<path d="M79.008 47.0001C79.008 64.6776 64.6776 79.008 47.0001 79.008C29.3226 79.008 14.9922 64.6776 14.9922 47.0001C14.9922 29.3226 29.3226 14.9922 47.0001 14.9922C64.6776 14.9922 79.008 29.3226 79.008 47.0001Z" fill="#1B76FF"/>
<path d="M62.6745 47.2321C62.8416 46.6841 62.878 46.1046 62.7807 45.54C62.6833 44.9755 62.455 44.4416 62.1141 43.9812C61.7731 43.5209 61.329 43.1468 60.8173 42.8891C60.3057 42.6314 59.7407 42.4973 59.1678 42.4974H51.7278C51.4464 42.4975 51.1695 42.4262 50.9231 42.2903C50.6767 42.1543 50.4687 41.9582 50.3186 41.7201C50.1686 41.482 50.0813 41.2097 50.0649 40.9288C50.0486 40.6478 50.1037 40.3673 50.2252 40.1134L52.1292 36.1227C52.3038 35.6043 52.344 35.05 52.246 34.5118C52.1481 33.9736 51.9152 33.4691 51.5692 33.0454C51.2494 32.6515 50.8427 32.337 50.381 32.1265C49.9193 31.9161 49.4152 31.8155 48.9081 31.8325C48.401 31.8496 47.9048 31.9839 47.4582 32.2248C47.0117 32.4658 46.6271 32.8069 46.3345 33.2214L39.8145 42.4587C39.6604 42.6764 39.4564 42.8541 39.2195 42.9768C38.9827 43.0995 38.7199 43.1637 38.4532 43.1641C38.2891 43.1641 38.1317 43.2292 38.0157 43.3453C37.8997 43.4613 37.8345 43.6187 37.8345 43.7827V58.8667C37.8345 58.992 37.8698 59.1147 37.9363 59.2208C38.0028 59.3269 38.0978 59.4121 38.2105 59.4667C43.1438 61.8561 44.7825 62.1721 48.7998 62.1721C49.2625 62.1721 51.8932 62.1454 52.8545 62.1454C56.4278 62.1454 58.8052 60.0721 60.1292 55.7734L62.6625 47.2814L62.6745 47.2321Z" fill="white"/>
<path d="M35.8347 43.1641H35.8001C35.7215 42.6992 35.4812 42.277 35.1216 41.972C34.762 41.6671 34.3062 41.499 33.8347 41.4974H31.8347C31.6579 41.4974 31.4884 41.5676 31.3633 41.6927C31.2383 41.8177 31.1681 41.9873 31.1681 42.1641V60.8307C31.1681 61.0075 31.2383 61.1771 31.3633 61.3021C31.4884 61.4272 31.6579 61.4974 31.8347 61.4974H33.8347C34.3652 61.4974 34.8739 61.2867 35.249 60.9116C35.624 60.5365 35.8347 60.0278 35.8347 59.4974V43.1641Z" fill="white"/>
</svg>
