<svg width="94" height="94" viewBox="0 0 94 94" fill="none" xmlns="http://www.w3.org/2000/svg">
<rect opacity="0.1" width="94" height="94" rx="26" fill="#FFCD1D"/>
<g filter="url(#filter0_d_1418_3528)">
<rect x="17.8828" y="19.655" width="58.2317" height="54.6898" rx="9.45" fill="#FFCD1D"/>
</g>
<path d="M62.5563 46.9998C62.5563 55.5933 55.5899 62.5597 46.9964 62.5597C38.4029 62.5597 31.4365 55.5933 31.4365 46.9998C31.4365 38.4063 38.4029 31.4399 46.9964 31.4399C55.5899 31.4399 62.5563 38.4063 62.5563 46.9998Z" fill="#FFCD1D"/>
<path d="M46.9969 28.0967C36.5576 28.0967 28.0938 36.5606 28.0938 46.9998C28.0938 57.4391 36.5576 65.9029 46.9969 65.9029C57.4361 65.9029 65.9 57.4391 65.9 46.9998C65.9 36.5606 57.4361 28.0967 46.9969 28.0967ZM53.672 52.4014C53.672 57.9022 49.1542 58.6441 48.3555 58.7434V61.886H45.9879V58.7434C45.2507 58.6418 40.291 58.0983 40.291 51.2648H44.7569C44.7569 55.3006 46.8386 55.1329 47.1552 55.1329C47.5025 55.1329 49.2062 55.0691 49.2062 52.4321C49.2062 47.1652 41.0329 49.5021 41.0329 41.6077C41.0329 36.1967 45.5177 35.3531 46.3187 35.2515V31.8773H48.7005V35.3177C49.459 35.4618 53.7028 36.4306 53.7028 42.6379H49.2369C49.2369 39.3937 47.8593 38.8833 47.2804 38.8833C46.9638 38.8833 45.4964 38.966 45.4964 41.629C45.4988 46.2768 53.672 44.8283 53.672 52.4014Z" fill="white"/>
<path d="M80.8149 73.8472L73.0679 66.1018C73.0247 66.059 72.9915 66.0073 72.9706 65.9502C72.9497 65.8931 72.9417 65.8321 72.9471 65.7716C72.9524 65.711 72.9711 65.6524 73.0018 65.5999C73.0324 65.5474 73.0742 65.5023 73.1243 65.4679L78.1031 62.0159C78.36 61.8379 78.5614 61.591 78.6841 61.3035C78.8068 61.0161 78.8459 60.6999 78.7969 60.3912C78.7478 60.0826 78.6126 59.794 78.4067 59.5588C78.2009 59.3237 77.9329 59.1514 77.6334 59.0618L56.5598 52.7371C56.3446 52.673 56.116 52.6683 55.8983 52.7235C55.6806 52.7786 55.4819 52.8916 55.3231 53.0504C55.1643 53.2092 55.0513 53.4079 54.9962 53.6256C54.941 53.8433 54.9457 54.0719 55.0098 54.2871L61.3345 75.364C61.4243 75.6634 61.5967 75.9312 61.832 76.1369C62.0673 76.3425 62.3558 76.4776 62.6645 76.5264C62.9731 76.5753 63.2893 76.5361 63.5766 76.4133C63.8639 76.2904 64.1107 76.089 64.2886 75.8321L67.7389 70.8533C67.7734 70.8033 67.8185 70.7616 67.8709 70.7309C67.9233 70.7003 67.9819 70.6816 68.0423 70.676C68.1028 70.6705 68.1637 70.6783 68.2208 70.6989C68.2779 70.7195 68.3298 70.7523 68.3729 70.7952L76.1199 78.5422C76.4311 78.8533 76.8531 79.0281 77.2932 79.0281C77.7333 79.0281 78.1553 78.8533 78.4666 78.5422L80.8149 76.1938C81.126 75.8826 81.3008 75.4606 81.3008 75.0205C81.3008 74.5804 81.126 74.1584 80.8149 73.8472Z" fill="#FF961B"/>
<defs>
<filter id="filter0_d_1418_3528" x="9.17004" y="13.1204" width="75.6599" height="72.1152" filterUnits="userSpaceOnUse" color-interpolation-filters="sRGB">
<feFlood flood-opacity="0" result="BackgroundImageFix"/>
<feColorMatrix in="SourceAlpha" type="matrix" values="0 0 0 0 0 0 0 0 0 0 0 0 0 0 0 0 0 0 127 0" result="hardAlpha"/>
<feOffset dy="2.17819"/>
<feGaussianBlur stdDeviation="4.35639"/>
<feColorMatrix type="matrix" values="0 0 0 0 1 0 0 0 0 0.80475 0 0 0 0 0.1125 0 0 0 0.27 0"/>
<feBlend mode="normal" in2="BackgroundImageFix" result="effect1_dropShadow_1418_3528"/>
<feBlend mode="normal" in="SourceGraphic" in2="effect1_dropShadow_1418_3528" result="shape"/>
</filter>
</defs>
</svg>
