<svg width="94" height="94" viewBox="0 0 94 94" fill="none" xmlns="http://www.w3.org/2000/svg">
<rect opacity="0.06" width="94" height="94" rx="26" fill="#782CE4"/>
<path d="M42.3334 61.6669C53.011 61.6669 61.6669 53.011 61.6669 42.3334C61.6669 31.6559 53.011 23 42.3334 23C31.6559 23 23 31.6559 23 42.3334C23 53.011 31.6559 61.6669 42.3334 61.6669Z" fill="#E9DAFF"/>
<path d="M56.0029 56.0034L70.9974 71M61.6669 42.3334C61.6669 53.011 53.011 61.6669 42.3334 61.6669C31.6559 61.6669 23 53.011 23 42.3334C23 31.6559 31.6559 23 42.3334 23C53.011 23 61.6669 31.6559 61.6669 42.3334Z" stroke="#782CE4" stroke-width="7" stroke-linecap="round" stroke-linejoin="round"/>
</svg>
