<svg width="94" height="94" viewBox="0 0 94 94" fill="none" xmlns="http://www.w3.org/2000/svg">
<rect opacity="0.06" width="94" height="94" rx="26" fill="#F4263E"/>
<path d="M20.9423 30.6488C20.9152 30.6353 20.8882 30.6623 20.9085 30.6826L41.3766 58.6953C41.3766 58.702 41.3902 58.7088 41.3969 58.7088H53.1568C53.1636 58.7088 53.1771 58.702 53.1771 58.6953L73.6453 30.6826C73.6589 30.6623 73.6386 30.6285 73.6115 30.642" fill="#F4263E"/>
<path d="M52.7706 68.5201L43.697 77.6005C42.8444 78.4531 41.3896 77.8509 41.3896 76.6465V58.7021H53.1698V67.5661C53.1631 67.9247 53.021 68.2698 52.7706 68.5201Z" fill="#D8162C"/>
<path d="M75.5463 28.0708C75.5463 31.975 62.8933 35.1417 47.2698 35.1417C31.6598 35.1417 19 31.975 19 28.0708C19 24.1666 31.6598 21 47.2765 21C62.8933 21 75.5463 24.1666 75.5463 28.0708Z" fill="#D8162C"/>
</svg>
