<svg width="160" height="164" viewBox="0 0 160 164" fill="none" xmlns="http://www.w3.org/2000/svg">
<rect opacity="0.06" width="160" height="160" rx="48" fill="#782CE4"/>
<g filter="url(#filter0_d_1409_8073)">
<rect x="26" y="27" width="108" height="107" rx="22" fill="white"/>
</g>
<path d="M98.0024 55.4167C98.0024 54.7757 97.7478 54.161 97.2946 53.7078C96.8414 53.2546 96.2267 53 95.5858 53C94.9448 53 94.3301 53.2546 93.8769 53.7078C93.4237 54.161 93.1691 54.7757 93.1691 55.4167V57.2872L49.2971 71.4512C49.054 71.5299 48.8421 71.6836 48.6919 71.8903C48.5416 72.097 48.4608 72.346 48.4609 72.6015V86.9975C48.4609 87.2547 48.5429 87.5051 48.6951 87.7124C48.8472 87.9198 49.0615 88.0732 49.3068 88.1503L52.4484 89.1363C52.6937 89.2134 52.908 89.3668 53.0601 89.5741C53.2123 89.7815 53.2943 90.0319 53.2943 90.289V96.5506C53.3102 99.4254 54.4626 102.177 56.5 104.206C58.5374 106.234 61.2943 107.374 64.1692 107.377H64.22C67.1015 107.361 69.8589 106.202 71.8879 104.156C73.9169 102.11 75.0519 99.3428 75.0442 96.4612V96.2195L93.1691 101.899V103.75C93.1691 104.391 93.4237 105.005 93.8769 105.459C94.3301 105.912 94.9448 106.166 95.5858 106.166C96.2267 106.166 96.8414 105.912 97.2946 105.459C97.7478 105.005 98.0024 104.391 98.0024 103.75V55.4167ZM70.2109 96.4733C70.2147 97.2667 70.0622 98.0531 69.7621 98.7875C69.462 99.522 69.0202 100.19 68.4618 100.754C67.9035 101.318 67.2396 101.766 66.5081 102.073C65.7765 102.38 64.9916 102.54 64.1982 102.544H64.1692C62.5735 102.544 61.0427 101.913 59.9107 100.788C58.7788 99.6634 58.1378 98.1366 58.1276 96.5409V92.5607C58.1276 92.371 58.1722 92.1839 58.2579 92.0146C58.3437 91.8454 58.4681 91.6987 58.621 91.5865C58.774 91.4742 58.9512 91.3996 59.1384 91.3685C59.3256 91.3375 59.5174 91.351 59.6984 91.408L69.365 94.4384C69.6103 94.5156 69.8246 94.669 69.9767 94.8763C70.1289 95.0836 70.2109 95.334 70.2109 95.5912V96.4733Z" fill="#782CE4"/>
<path d="M44.8333 71.1249C44.8333 70.484 44.5787 69.8693 44.1255 69.4161C43.6723 68.9629 43.0576 68.7083 42.4167 68.7083C41.7757 68.7083 41.161 68.9629 40.7078 69.4161C40.2546 69.8693 40 70.484 40 71.1249L40.0121 88.0415C40.0121 88.3589 40.0746 88.6731 40.196 88.9663C40.3175 89.2595 40.4955 89.5259 40.7199 89.7504C40.9443 89.9748 41.2107 90.1528 41.5039 90.2742C41.7971 90.3957 42.1114 90.4582 42.4287 90.4582H42.4167C43.0477 90.4584 43.6537 90.2117 44.1053 89.771C44.5569 89.3302 44.8182 88.7303 44.8333 88.0995V71.1249Z" fill="#782CE4"/>
<rect x="115.125" y="60.1886" width="5" height="14" rx="2.5" transform="rotate(60 115.125 60.1886)" fill="#FFCD1D"/>
<rect x="118.125" y="93.5188" width="5" height="14" rx="2.5" transform="rotate(120 118.125 93.5188)" fill="#FFCD1D"/>
<rect x="121" y="76.1886" width="5" height="17" rx="2.5" transform="rotate(90 121 76.1886)" fill="#FFCD1D"/>
<defs>
<filter id="filter0_d_1409_8073" x="5.3419" y="15.1954" width="149.316" height="148.316" filterUnits="userSpaceOnUse" color-interpolation-filters="sRGB">
<feFlood flood-opacity="0" result="BackgroundImageFix"/>
<feColorMatrix in="SourceAlpha" type="matrix" values="0 0 0 0 0 0 0 0 0 0 0 0 0 0 0 0 0 0 127 0" result="hardAlpha"/>
<feOffset dy="8.85347"/>
<feGaussianBlur stdDeviation="10.329"/>
<feColorMatrix type="matrix" values="0 0 0 0 0.350054 0 0 0 0 0.095 0 0 0 0 0.7125 0 0 0 0.09 0"/>
<feBlend mode="normal" in2="BackgroundImageFix" result="effect1_dropShadow_1409_8073"/>
<feBlend mode="normal" in="SourceGraphic" in2="effect1_dropShadow_1409_8073" result="shape"/>
</filter>
</defs>
</svg>
