<svg width="94" height="104" viewBox="0 0 94 104" fill="none" xmlns="http://www.w3.org/2000/svg">
<rect opacity="0.08" width="94" height="94" rx="26" fill="#3FDCFF"/>
<g filter="url(#filter0_dd_1418_8171)">
<rect x="16.0703" y="14.2324" width="61.8654" height="68.8081" rx="8" fill="white"/>
</g>
<rect opacity="0.6" x="22.4219" y="64.9404" width="32.0551" height="4" rx="2" fill="#62668A"/>
<rect opacity="0.3" x="22.4219" y="71.9404" width="49.1634" height="4" rx="2" fill="#BEBFCC"/>
<g filter="url(#filter1_d_1418_8171)">
<rect x="22.4219" y="21.4731" width="49.1634" height="38.1508" rx="3" fill="#3FDCFF"/>
</g>
<g filter="url(#filter2_d_1418_8171)">
<path d="M55.1039 39.6603L41.7809 32.9985C41.6294 32.9232 41.4612 32.8878 41.2922 32.8956C41.1233 32.9034 40.9591 32.9542 40.8152 33.0431C40.6713 33.1321 40.5525 33.2563 40.47 33.404C40.3875 33.5516 40.3441 33.7179 40.3438 33.887V47.2101C40.344 47.3793 40.3874 47.5456 40.4699 47.6932C40.5524 47.8409 40.6713 47.9651 40.8152 48.054C40.9591 48.1429 41.1233 48.1936 41.2923 48.2013C41.4613 48.209 41.6295 48.1735 41.7809 48.098L55.1039 41.4368C55.2688 41.3543 55.4075 41.2275 55.5045 41.0706C55.6014 40.9137 55.6528 40.733 55.6528 40.5486C55.6528 40.3642 55.6014 40.1834 55.5045 40.0265C55.4075 39.8696 55.2688 39.7428 55.1039 39.6603Z" fill="white"/>
</g>
<defs>
<filter id="filter0_dd_1418_8171" x="2.07031" y="6.23242" width="89.8672" height="96.8081" filterUnits="userSpaceOnUse" color-interpolation-filters="sRGB">
<feFlood flood-opacity="0" result="BackgroundImageFix"/>
<feColorMatrix in="SourceAlpha" type="matrix" values="0 0 0 0 0 0 0 0 0 0 0 0 0 0 0 0 0 0 127 0" result="hardAlpha"/>
<feOffset dy="6"/>
<feGaussianBlur stdDeviation="7"/>
<feColorMatrix type="matrix" values="0 0 0 0 0.245833 0 0 0 0 0.86425 0 0 0 0 1 0 0 0 0.22 0"/>
<feBlend mode="normal" in2="BackgroundImageFix" result="effect1_dropShadow_1418_8171"/>
<feColorMatrix in="SourceAlpha" type="matrix" values="0 0 0 0 0 0 0 0 0 0 0 0 0 0 0 0 0 0 127 0" result="hardAlpha"/>
<feOffset/>
<feGaussianBlur stdDeviation="2"/>
<feColorMatrix type="matrix" values="0 0 0 0 0.121042 0 0 0 0 0.143938 0 0 0 0 0.35 0 0 0 0.05 0"/>
<feBlend mode="normal" in2="effect1_dropShadow_1418_8171" result="effect2_dropShadow_1418_8171"/>
<feBlend mode="normal" in="SourceGraphic" in2="effect2_dropShadow_1418_8171" result="shape"/>
</filter>
<filter id="filter1_d_1418_8171" x="18.4219" y="20.4731" width="57.1641" height="46.1509" filterUnits="userSpaceOnUse" color-interpolation-filters="sRGB">
<feFlood flood-opacity="0" result="BackgroundImageFix"/>
<feColorMatrix in="SourceAlpha" type="matrix" values="0 0 0 0 0 0 0 0 0 0 0 0 0 0 0 0 0 0 127 0" result="hardAlpha"/>
<feOffset dy="3"/>
<feGaussianBlur stdDeviation="2"/>
<feColorMatrix type="matrix" values="0 0 0 0 0.245833 0 0 0 0 0.86425 0 0 0 0 1 0 0 0 0.17 0"/>
<feBlend mode="normal" in2="BackgroundImageFix" result="effect1_dropShadow_1418_8171"/>
<feBlend mode="normal" in="SourceGraphic" in2="effect1_dropShadow_1418_8171" result="shape"/>
</filter>
<filter id="filter2_d_1418_8171" x="34.3438" y="30.8945" width="27.3125" height="27.3079" filterUnits="userSpaceOnUse" color-interpolation-filters="sRGB">
<feFlood flood-opacity="0" result="BackgroundImageFix"/>
<feColorMatrix in="SourceAlpha" type="matrix" values="0 0 0 0 0 0 0 0 0 0 0 0 0 0 0 0 0 0 127 0" result="hardAlpha"/>
<feOffset dy="4"/>
<feGaussianBlur stdDeviation="3"/>
<feColorMatrix type="matrix" values="0 0 0 0 0.121042 0 0 0 0 0.143938 0 0 0 0 0.35 0 0 0 0.19 0"/>
<feBlend mode="normal" in2="BackgroundImageFix" result="effect1_dropShadow_1418_8171"/>
<feBlend mode="normal" in="SourceGraphic" in2="effect1_dropShadow_1418_8171" result="shape"/>
</filter>
</defs>
</svg>
